<?xml version="1.0" encoding="UTF-8"?><svg id="a" xmlns="http://www.w3.org/2000/svg" viewBox="0 0 12.1 16.36"><defs><style>.b{fill:#277e39;}</style></defs><path class="b" d="M9.51,0H3.11V1.64c-.02,.87-.61,1.46-1.48,1.48-.54,0-1.09,0-1.63,0V12.41c0,1,.81,1.8,1.8,1.8H6.65s.03-.09,.05-.13c.04-.1,.08-.2,.11-.3,.02-.04,.03-.09,.05-.13-.14-.14-.33-.24-.56-.29-.16-.03-.26-.08-.32-.16s-.07-.2-.04-.36c.07-.41-.05-.74-.37-1.01-.29-.24-.3-.37-.08-.68,.06-.08,.11-.16,.14-.25H1.96c-.18,0-.4,0-.41-.23,0-.26,.22-.26,.42-.26h3.72c-.01-.1-.04-.21-.09-.32-.14-.33-.08-.47,.24-.62,.22-.11,.38-.26,.48-.45H1.93c-.18,0-.39,.02-.39-.24s.22-.23,.4-.23H6.44c.05-.33,.15-.39,.51-.39,.4,.01,.7-.15,.92-.48,.21-.32,.34-.35,.66-.17,.36,.2,.7,.19,1.06,0,.32-.18,.45-.15,.65,.15,.14,.22,.32,.36,.53,.44,.13,.05,.27,.07,.42,.06h.11V1.8c0-.99-.81-1.8-1.8-1.8h.01Zm-.58,6.98H1.97c-.18,0-.4,.01-.41-.22,0-.27,.21-.26,.41-.26h6.97c.19,0,.43-.02,.43,.24s-.24,.24-.43,.24h-.01Zm0-2.07H1.89c-.18,0-.34-.06-.33-.27,0-.19,.18-.21,.34-.21h7.04c.19,0,.43-.04,.43,.24,0,.26-.24,.24-.44,.24Zm.07-2.39H4.74c-.17,0-.36,0-.36-.23,0-.26,.21-.24,.39-.24h4.22c.18,0,.39,0,.38,.25,0,.21-.2,.22-.37,.22Z"/><path class="b" d="M12,11.15c-.19-.27-.23-.55-.1-.85,.11-.26,.07-.38-.2-.51-.18-.09-.31-.21-.39-.36-.05-.1-.09-.21-.1-.34-.03-.29-.12-.37-.41-.36-.34,0-.59-.13-.78-.41-.16-.24-.27-.27-.53-.12-.29,.16-.57,.16-.86,0-.26-.15-.37-.12-.54,.14-.18,.27-.42,.4-.75,.39-.29,0-.38,.05-.42,.32v.06c-.04,.32-.2,.55-.5,.69-.26,.12-.3,.24-.19,.51,.02,.05,.03,.09,.05,.13,.05,.17,.04,.33-.01,.48-.03,.08-.07,.16-.13,.24-.18,.25-.17,.36,.06,.55,.26,.22,.36,.49,.3,.82-.05,.26,.03,.37,.29,.42,.15,.03,.28,.09,.39,.17,.13,.1,.22,.24,.28,.41,.09,.25,.18,.31,.41,.26h.08c.3-.09,.57-.04,.81,.17,.26,.23,.34,.23,.6,0,.23-.2,.49-.26,.78-.19,.35,.08,.41,.06,.53-.27,.1-.27,.28-.44,.54-.52,.03-.01,.07-.02,.1-.03,.29-.06,.36-.16,.31-.45-.05-.33,.05-.59,.3-.8,.23-.19,.24-.3,.06-.55h.02Zm-2.92,1.59c-.93,0-1.68-.75-1.68-1.69s.76-1.65,1.68-1.66c.91,0,1.67,.75,1.67,1.67s-.75,1.68-1.67,1.68Z"/><path class="b" d="M11.69,15.71c-.07,.08-.24-.02-.37-.05s-.27-.04-.39-.09c-.24-.1-.38-.02-.5,.19-.11,.18-.26,.34-.39,.52-.07,.09-.1,.13-.15-.01-.14-.4-.29-.79-.43-1.19-.04-.1-.07-.19-.11-.29-.02-.05-.05-.1,.02-.12,.05-.02,.1-.05,.14-.08,.07-.05,.13-.12,.21-.17,.15-.11,.33-.13,.5-.09,.11,.02,.2,.04,.28,.05,.23,.02,.32-.07,.45-.35,.01-.03,.03-.06,.04-.09,0-.02,.02-.03,.05-.07v.03c.06,.14,.12,.29,.17,.43,.13,.36,.26,.7,.38,1.05,.04,.12,.17,.27,.09,.34h0Z"/><path class="b" d="M8.82,14.73c0,.1-.07,.2-.1,.3,0,.01,0,.03-.02,.04-.14,.38-.27,.75-.41,1.13-.02,.05-.01,.14-.07,.15h0c-.07,.01-.09-.07-.13-.11-.16-.2-.32-.39-.46-.6-.08-.11-.16-.13-.27-.1h-.02c-.26,.07-.52,.12-.77,.18-.07,.02-.11,.02-.11-.01,0-.02,0-.04,.01-.08l.39-1.05,.1-.27c.04-.11,.08-.23,.12-.34,.01-.03,.03-.07,.04-.1,.08,.04,.08,.11,.1,.16s.04,.09,.07,.13c.12,.18,.32,.26,.56,.18,.3-.09,.55-.04,.76,.19,.02,.02,.04,.03,.07,.05,.07,.04,.16,.06,.16,.14h-.02Z"/><path class="b" d="M2.67,1.64c0,.6-.42,1-1.02,1.02-.55,0-1.09,0-1.64,0C.91,1.77,1.78,.91,2.67,.02c0,.55,0,1.08,0,1.62Z"/></svg>