<?xml version="1.0" encoding="UTF-8"?><svg id="a" xmlns="http://www.w3.org/2000/svg" viewBox="0 0 133.06 109.48"><defs><style>.b{fill:#277e39;}</style></defs><path class="b" d="M42.06,50.95c1-1.02,.92-2.16-.14-2.73-.88-.47-1.55-.1-2.17,.53-2.01,2.03-4.02,4.05-6.09,6.14-1.83-1.85-3.59-3.62-5.34-5.41-.77-.79-1.59-1.27-2.59-.42-.81,.68-.67,1.67,.35,2.7,1.57,1.58,3.12,3.17,4.73,4.71,.52,.49,.49,.77-.01,1.26-1.61,1.54-3.15,3.15-4.74,4.7-.81,.79-1.22,1.63-.43,2.61,.64,.79,1.71,.63,2.71-.35,1.58-1.57,3.17-3.12,4.71-4.73,.51-.53,.79-.48,1.27,.02,1.31,1.38,2.67,2.72,4.03,4.05,.77,.75,1.68,1.08,2.51,.2,.8-.86,.5-1.73-.29-2.5-1.3-1.27-2.55-2.6-3.87-3.84-.62-.57-.72-.91-.04-1.55,1.85-1.75,3.63-3.56,5.4-5.39Zm39.67,32.43c-5.65-5.39-12.39-8.06-20.17-8.17-4.39-.03-8.56,.92-12.51,2.8-3.32,1.59-6.19,3.77-8.68,6.47-.69,.75-.81,1.52-.05,2.27,.8,.78,1.6,.75,2.37-.06,.25-.26,.5-.53,.76-.79,6.33-6.15,13.86-8.54,22.57-7.13,5.26,.85,9.77,3.23,13.56,6.98,.98,.96,2.06,1,2.69,.12,.71-1,.21-1.76-.54-2.49Zm11.15-23.56c-1.56-1.58-3.12-3.18-4.73-4.71-.54-.52-.61-.81-.02-1.35,1.24-1.14,2.39-2.36,3.58-3.55,.77-.76,1.1-1.59,.31-2.51-.67-.78-1.65-.68-2.6,.27-1.38,1.38-2.73,2.78-4.17,4.25-1.84-1.85-3.58-3.62-5.35-5.38-1.03-1.03-2.02-1.18-2.7-.37-.82,.99-.39,1.83,.41,2.61,1.79,1.75,3.55,3.51,5.4,5.33-1.74,1.73-3.41,3.39-5.09,5.05-.78,.76-1.1,1.59-.31,2.51,.67,.78,1.64,.67,2.6-.27,1.39-1.36,2.8-2.72,4.13-4.15,.65-.7,1.02-.85,1.75-.05,1.43,1.59,3,3.04,4.5,4.56,.79,.81,1.64,1.2,2.61,.36,.77-.67,.64-1.62-.32-2.6Zm0,0c-1.56-1.58-3.12-3.18-4.73-4.71-.54-.52-.61-.81-.02-1.35,1.24-1.14,2.39-2.36,3.58-3.55,.77-.76,1.1-1.59,.31-2.51-.67-.78-1.65-.68-2.6,.27-1.38,1.38-2.73,2.78-4.17,4.25-1.84-1.85-3.58-3.62-5.35-5.38-1.03-1.03-2.02-1.18-2.7-.37-.82,.99-.39,1.83,.41,2.61,1.79,1.75,3.55,3.51,5.4,5.33-1.74,1.73-3.41,3.39-5.09,5.05-.78,.76-1.1,1.59-.31,2.51,.67,.78,1.64,.67,2.6-.27,1.39-1.36,2.8-2.72,4.13-4.15,.65-.7,1.02-.85,1.75-.05,1.43,1.59,3,3.04,4.5,4.56,.79,.81,1.64,1.2,2.61,.36,.77-.67,.64-1.62-.32-2.6Zm-31.32,15.39c-4.39-.03-8.56,.92-12.51,2.8-3.32,1.59-6.19,3.77-8.68,6.47-.69,.75-.81,1.52-.05,2.27,.8,.78,1.6,.75,2.37-.06,.25-.26,.5-.53,.76-.79,6.33-6.15,13.86-8.54,22.57-7.13,5.26,.85,9.77,3.23,13.56,6.98,.98,.96,2.06,1,2.69,.12,.71-1,.21-1.76-.54-2.49-5.65-5.39-12.39-8.06-20.17-8.17Zm-20.7-10.98c.8-.86,.5-1.73-.29-2.5-1.3-1.27-2.55-2.6-3.87-3.84-.62-.57-.72-.91-.04-1.55,1.85-1.75,3.63-3.56,5.4-5.39,1-1.02,.92-2.16-.14-2.73-.88-.47-1.55-.1-2.17,.53-2.01,2.03-4.02,4.05-6.09,6.14-1.83-1.85-3.59-3.62-5.34-5.41-.77-.79-1.59-1.27-2.59-.42-.81,.68-.67,1.67,.35,2.7,1.57,1.58,3.12,3.17,4.73,4.71,.52,.49,.49,.77-.01,1.26-1.61,1.54-3.15,3.15-4.74,4.7-.81,.79-1.22,1.63-.43,2.61,.64,.79,1.71,.63,2.71-.35,1.58-1.57,3.17-3.12,4.71-4.73,.51-.53,.79-.48,1.27,.02,1.31,1.38,2.67,2.72,4.03,4.05,.77,.75,1.68,1.08,2.51,.2Zm76.26,32.08c.33-3.58,.68-7.15,1.03-10.72,1.42-14.28,2.84-28.57,4.25-42.85,.44-4.47-2.54-8.32-6.93-8.93-.86-.12-1.12-.38-1.11-1.26,.05-4.09,.02-8.18,.02-12.27-.01-1-.01-2-.24-2.98-1.12-4.69-4.85-7.6-9.93-7.68-15.59-.22-31.18-.42-46.77-.63-12.96-.18-25.91-.4-38.86-.53-4.92-.06-8.79,3.11-9.78,7.82-.29,1.39-.19,2.81-.15,4.22,.02,.73-.15,1.12-.91,1.37-1.37,.43-2.48,1.31-3.35,2.47C1.24,28.51-.37,33.17,.07,38.44c.62,7.24,1.27,14.48,1.9,21.72,.89,10.19,1.75,20.37,2.67,30.55,.29,3.3,.34,6.63,1.07,9.88,.72,3.24,2.63,5.39,5.81,6.41,1.7,.55,3.43,.9,5.2,1.03,6.75,.52,13.52,.68,20.29,.91,26.55,.87,53.09,.54,79.63,.12,1.05-.02,2.09-.13,3.02-.7,1.07-.66,1.86-1.53,1.7-2.86-.17-1.34-1.22-1.81-2.37-2.12-1.64-.45-3.34-.28-5.22-.57,2.15-1.79,3.11-3.96,3.35-6.5ZM11.67,20.2c.13-.98-.04-2.01,.1-2.99,.5-3.37,3.14-5.54,6.69-5.49,12.45,.17,24.9,.36,37.35,.53,1.86,.03,3.73,0,5.59,0v.07c14.27,.2,28.53,.38,42.8,.59,3.56,.05,5.99,1.74,6.88,4.68,.16,.53,.21,1.07,.21,1.61,.01,4.54-.02,9.09,.03,13.63,0,.84-.2,1.06-1.05,1.06-9.68-.04-19.36-.03-29.04-.03-2.66,0-4.83-1.09-6.6-3.02-1.35-1.47-2.65-2.99-3.97-4.49-2.87-3.25-6.46-4.82-10.82-4.81-15.59,.04-31.18,0-46.76,.04-1.11,.01-1.55-.2-1.41-1.38ZM108.68,101.23H17.33c-3.91,0-5.6-1.63-5.93-5.49-.84-9.73-1.75-19.46-2.62-29.18-.86-9.69-1.7-19.37-2.55-29.05-.22-2.45-.42-4.89-.67-7.33-.32-3.12,1.67-5.52,4.79-5.72,.5-.03,1-.02,1.5-.02,15.77,0,31.54,.05,47.32-.04,4.08-.02,7.33,1.28,9.86,4.48,1.06,1.36,2.3,2.58,3.41,3.9,2.45,2.9,5.56,4.2,9.34,4.19,10.5-.05,21-.02,31.5-.01,.82,0,1.66,.01,2.44,.21,2.43,.61,3.83,2.83,3.58,5.36-.89,8.86-1.73,17.72-2.59,26.58-.91,9.23-1.8,18.45-2.73,27.66-.27,2.64-2.47,4.46-5.3,4.46Zm-20.53-46.12c-.54-.52-.61-.81-.02-1.35,1.24-1.14,2.39-2.36,3.58-3.55,.77-.76,1.1-1.59,.31-2.51-.67-.78-1.65-.68-2.6,.27-1.38,1.38-2.73,2.78-4.17,4.25-1.84-1.85-3.58-3.62-5.35-5.38-1.03-1.03-2.02-1.18-2.7-.37-.82,.99-.39,1.83,.41,2.61,1.79,1.75,3.55,3.51,5.4,5.33-1.74,1.73-3.41,3.39-5.09,5.05-.78,.76-1.1,1.59-.31,2.51,.67,.78,1.64,.67,2.6-.27,1.39-1.36,2.8-2.72,4.13-4.15,.65-.7,1.02-.85,1.75-.05,1.43,1.59,3,3.04,4.5,4.56,.79,.81,1.64,1.2,2.61,.36,.77-.67,.64-1.62-.32-2.6-1.56-1.58-3.12-3.18-4.73-4.71Zm-26.59,20.1c-4.39-.03-8.56,.92-12.51,2.8-3.32,1.59-6.19,3.77-8.68,6.47-.69,.75-.81,1.52-.05,2.27,.8,.78,1.6,.75,2.37-.06,.25-.26,.5-.53,.76-.79,6.33-6.15,13.86-8.54,22.57-7.13,5.26,.85,9.77,3.23,13.56,6.98,.98,.96,2.06,1,2.69,.12,.71-1,.21-1.76-.54-2.49-5.65-5.39-12.39-8.06-20.17-8.17Zm-20.7-10.98c.8-.86,.5-1.73-.29-2.5-1.3-1.27-2.55-2.6-3.87-3.84-.62-.57-.72-.91-.04-1.55,1.85-1.75,3.63-3.56,5.4-5.39,1-1.02,.92-2.16-.14-2.73-.88-.47-1.55-.1-2.17,.53-2.01,2.03-4.02,4.05-6.09,6.14-1.83-1.85-3.59-3.62-5.34-5.41-.77-.79-1.59-1.27-2.59-.42-.81,.68-.67,1.67,.35,2.7,1.57,1.58,3.12,3.17,4.73,4.71,.52,.49,.49,.77-.01,1.26-1.61,1.54-3.15,3.15-4.74,4.7-.81,.79-1.22,1.63-.43,2.61,.64,.79,1.71,.63,2.71-.35,1.58-1.57,3.17-3.12,4.71-4.73,.51-.53,.79-.48,1.27,.02,1.31,1.38,2.67,2.72,4.03,4.05,.77,.75,1.68,1.08,2.51,.2Z"/><path class="b" d="M128.75,7.4c-.03,.73-.43,1.12-.95,1.45-3.05,1.94-6.1,3.88-9.14,5.84-.83,.53-1.58,.5-2.13-.29-.61-.86-.32-1.64,.53-2.19,3.15-2.03,6.32-4.05,9.47-6.08,.52-.34,1.03-.32,1.53-.03,.51,.3,.77,.76,.7,1.3Z"/><path class="b" d="M121.3,21.53c-1.04,.07-2.01-.12-2.11-1.35-.11-1.3,.78-1.66,1.92-1.74,3.26-.22,6.52-.5,9.79-.72,1.3-.09,2.24,.55,2.17,1.48-.09,1.17-.87,1.51-1.98,1.58-3.26,.2-6.52,.49-9.78,.75Z"/><path class="b" d="M118.06,1.19c-.02,.57-.26,.9-.51,1.22-1.51,1.95-2.63,4.12-3.43,6.45-.35,1.01-.91,1.76-2.09,1.33-1.19-.44-1.11-1.38-.72-2.37,.99-2.5,2.32-4.81,3.93-6.96,.55-.73,1.32-1,2.16-.79,.54,.14,.54,.77,.66,1.12Z"/><path class="b" d="M82.27,85.87c-.63,.88-1.71,.84-2.69-.12-3.79-3.75-8.3-6.13-13.56-6.98-8.71-1.41-16.24,.98-22.57,7.13-.26,.26-.51,.53-.76,.79-.77,.81-1.57,.84-2.37,.06-.76-.75-.64-1.52,.05-2.27,2.49-2.7,5.36-4.88,8.68-6.47,3.95-1.88,8.12-2.83,12.51-2.8,7.78,.11,14.52,2.78,20.17,8.17,.75,.73,1.25,1.49,.54,2.49Z"/><path class="b" d="M36.66,56.34c-.68,.64-.58,.98,.04,1.55,1.32,1.24,2.57,2.57,3.87,3.84,.79,.77,1.09,1.64,.29,2.5-.83,.88-1.74,.55-2.51-.2-1.36-1.33-2.72-2.67-4.03-4.05-.48-.5-.76-.55-1.27-.02-1.54,1.61-3.13,3.16-4.71,4.73-1,.98-2.07,1.14-2.71,.35-.79-.98-.38-1.82,.43-2.61,1.59-1.55,3.13-3.16,4.74-4.7,.5-.49,.53-.77,.01-1.26-1.61-1.54-3.16-3.13-4.73-4.71-1.02-1.03-1.16-2.02-.35-2.7,1-.85,1.82-.37,2.59,.42,1.75,1.79,3.51,3.56,5.34,5.41,2.07-2.09,4.08-4.11,6.09-6.14,.62-.63,1.29-1,2.17-.53,1.06,.57,1.14,1.71,.14,2.73-1.77,1.83-3.55,3.64-5.4,5.39Z"/><path class="b" d="M93.2,62.42c-.97,.84-1.82,.45-2.61-.36-1.5-1.52-3.07-2.97-4.5-4.56-.73-.8-1.1-.65-1.75,.05-1.33,1.43-2.74,2.79-4.13,4.15-.96,.94-1.93,1.05-2.6,.27-.79-.92-.47-1.75,.31-2.51,1.68-1.66,3.35-3.32,5.09-5.05-1.85-1.82-3.61-3.58-5.4-5.33-.8-.78-1.23-1.62-.41-2.61,.68-.81,1.67-.66,2.7,.37,1.77,1.76,3.51,3.53,5.35,5.38,1.44-1.47,2.79-2.87,4.17-4.25,.95-.95,1.93-1.05,2.6-.27,.79,.92,.46,1.75-.31,2.51-1.19,1.19-2.34,2.41-3.58,3.55-.59,.54-.52,.83,.02,1.35,1.61,1.53,3.17,3.13,4.73,4.71,.96,.98,1.09,1.93,.32,2.6Z"/></svg>