<?xml version="1.0" encoding="UTF-8"?><svg id="a" xmlns="http://www.w3.org/2000/svg" viewBox="0 0 130.04 129.07"><defs><style>.b{fill:#277e39;}</style></defs><path class="b" d="M121.42,127.18c-6.84-18.06-13.73-36.12-20.54-54.2-.48-1.26-1.13-1.8-2.39-2.03-8.59-1.58-17.17-3.21-25.75-4.82-1.73-.33-3.47-.66-5.21-.93-1.22-.19-2.08-.82-2.82-1.78-2.08-2.65-4.25-5.23-6.29-7.9-.81-1.06-1.74-1.59-3.04-1.77-10.11-1.34-20.2-2.7-30.3-4.09-6.3-.86-12.59-1.8-18.89-2.64-1-.13-2.22-.78-3.01,.3-1.17,1.58-2.16,3.29-3.18,4.87,.57,1.26,1.03,2.31,1.51,3.35,7.55,16.32,15.12,32.63,22.64,48.97,.62,1.34,1.29,2.12,2.88,2.49,18.87,4.33,37.72,8.77,56.58,13.18,12.15,2.85,24.29,5.7,36.44,8.55,.57,.13,1.23,.61,1.72,.11,.55-.57-.15-1.14-.35-1.66ZM33.15,82.15c-.85,.88-1.57,1.88-2.26,2.72-1.64-.74-2.39-1.74-3.11-2.69-.57-.75,.36-1.17,.81-1.63,1.07-1.09,2.11-2.22,3.27-3.22,.91-.79,.86-1.41,.12-2.29-1.22-1.46-2.25-3.1-3.53-4.51-1.01-1.1-.98-1.64,.18-2.71,1.71-1.6,2.59-1,3.7,.58,1.08,1.55,2.19,3.86,3.65,4.16,1.64,.35,2.73-2.25,4.18-3.43,.06-.04,.13-.09,.17-.15,1.15-1.47,1.78-.25,2.48,.49,.74,.76,2.06,1.37,.52,2.67-1.23,1.03-2.26,2.29-3.47,3.35-.93,.82-1.08,1.46-.18,2.46,1.27,1.42,2.29,3.06,3.55,4.49,1.01,1.15,1.09,1.82-.28,2.87-1.46,1.1-2.35,1.36-3.34-.42-.51-.92-1.3-1.69-1.97-2.53-2.09-2.65-2.12-2.67-4.49-.21Zm40.01,24.33c-.08,2.54-.55,3-3.15,2.51-10.16-1.91-20.3-3.92-30.47-5.79-1.89-.35-1.15-1.43-.98-2.36,.19-1.05,.09-2.31,2.01-1.9,4.78,1.04,9.62,1.87,14.43,2.78,5.42,1.02,10.84,2.02,16.25,3.1,.83,.16,2.21-.01,1.91,1.66Zm11.59-15.45c-.76,.91-1.82,1.58-2.6,2.23-.74,.01-.85-.43-1.08-.71-1.17-1.41-2.33-2.84-3.49-4.26q-1.86-2.29-3.96-.35c-.96,.88-1.95,1.74-2.87,2.66-1.5,1.5-1.89-.34-2.62-.91-.78-.6-1.57-1.31-.27-2.35,1.44-1.14,2.7-2.5,4.09-3.7,.8-.69,.9-1.25,.17-2.09-1.49-1.74-2.81-3.64-4.37-5.32-1.2-1.29-.34-1.86,.59-2.47,.83-.56,1.53-2,2.74-.32,1.26,1.73,2.78,3.27,4.03,5,.83,1.16,1.41,1.08,2.31,.14,1.16-1.21,2.46-2.3,3.65-3.49,.71-.7,1.18-.92,2.03-.04,2.11,2.17,2.17,2.11-.03,4.14-1.02,.94-1.98,1.94-3.06,2.78-1.07,.84-.98,1.46-.11,2.41,1.45,1.57,2.75,3.28,4.08,4.96,.39,.5,1.34,1,.77,1.69Z"/><path class="b" d="M129.22,51.53c-2.78-3.84-5.55-7.68-8.28-11.56-.63-.9-1.37-1.23-2.45-1.39-4.55-.63-9.07-1.42-13.61-2.09-1.69-.26-2.68-.76-1.53-2.63,.84-1.37,.16-2.09-1.17-2.49-1.16-.35-2.57-1.34-2.9,.86-.38,2.57-1.73,2.92-3.94,2.08-1.68-.64-3.14-.26-4.58,1.03-2.51,2.25-5.32,4.14-7.85,6.36-1.45,1.26-2.84,1.71-4.77,1.46-14.97-1.96-29.95-3.81-44.92-5.72-3.2-.41-3.2-.47-3.44,2.76-.43,5.59-.44,5.65,5,6.43,7.67,1.09,15.34,2.12,23.02,3.09,1.18,.15,1.98,.59,2.68,1.47,1.99,2.53,4.1,4.97,5.99,7.56,1.06,1.45,2.28,2.3,4.06,2.62,7.24,1.28,14.46,2.66,21.7,3.97,.89,.16,1.9,.74,2.64-.52,.33-.57,.94-.11,1.42,.15,1.13,.63,2.27,1.68,3.43,1.72,3.24,.12,4.24,2.08,5.22,4.71,6.12,16.39,12.38,32.73,18.59,49.1,.1,.27,.21,.55,.32,.82,.15,0,.31,.01,.46,.01,.2-1.8,.45-3.6,.6-5.4,1.66-20.69,3.3-41.37,4.98-62.06,.07-.91-.15-1.62-.67-2.34Zm-29.61-11.98c1.92,0,2.43,.63,2.42,2.49,0,1.85-.78,2.25-2.49,1.96-1.86,.52-2.09-.55-2.11-2.23,0-1.66,.45-2.22,2.18-2.22Zm.14,21.94c-1.04-.05-3.2,.29-3.06-1.67,.08-1-.46-3.26,1.66-3.05,1,.1,2.98-.35,3.12,1.82-.67,.95,.11,2.99-1.72,2.9Zm2.42-11.16c-.14,1.47,.04,2.67-2.12,2.48-1.54-.13-2.83-.08-2.34-2.14-.24-1.54-.03-2.56,1.93-2.39,1.42,.12,2.75-.18,2.53,2.05Z"/><path class="b" d="M122.14,16.65c-2.45,.05-3.94,1.96-3.39,4.35,.72,3.15,4.13,6.13,7.35,6.41,2.64,.23,4.43-1.79,3.84-4.34-.78-3.37-4.56-6.49-7.79-6.42Z"/><path class="b" d="M106.51,10.59c2.73,0,4.2-2.01,3.39-4.62C108.79,2.41,105.23-.22,101.83,.01c-2.12,.15-3.37,1.62-3.13,3.68,.41,3.48,4.3,6.91,7.81,6.9Z"/><path class="b" d="M111.16,15.86c.08,.89,.58,1.47,1.77,1.29,1.95-.3,4.66-3.39,4.68-5.4,.01-1.11-.47-1.73-1.66-1.61-2.09,.22-4.86,3.4-4.79,5.71Z"/><path class="b" d="M102.87,26.4c.76,.89,1.73,1.81,2.94,2.41,.4,.2,2.89-2.71,2.63-3.1-.74-1.14-1.81-1.98-3.03-2.57-.32-.15-2.55,2.58-2.54,3.26Z"/></svg>