<?xml version="1.0" encoding="UTF-8"?><svg id="a" xmlns="http://www.w3.org/2000/svg" viewBox="0 0 715.81 240.08"><defs><style>.b{font-family:Agraham-PersonalUse, Agraham;font-size:78px;}.b,.c{fill:#efefef;}.d{fill:#00e065;}.e{letter-spacing:-.06em;}.f{letter-spacing:0em;}.g{letter-spacing:.04em;}</style></defs><g><path class="d" d="M72.45,67.28h0l-2.88,25.21v.05l-2.89,25.18,12.89,16.22,12.89-16.22-2.59-22.6h0l-2.06-17.98-1.12-9.8h0l-.88-7.7c-.07-.61,.13-1.17,.58-1.6,.45-.43,1.01-.61,1.62-.51,11.89,1.85,22.53,7.47,30.66,15.6,9.31,9.31,15.32,21.9,16.16,35.89h-9.92c-.82-11.26-5.72-21.38-13.23-28.9-3.98-3.98-8.7-7.23-13.94-9.53l5.5,48.11,.25,2.18-1.37,1.72-18.41,23.16-4.15,5.22-4.15-5.22-18.41-23.16-1.34-1.75,.22-2.14,5.52-48.24c-5.36,2.3-10.18,5.6-14.25,9.67-7.51,7.51-12.42,17.64-13.23,28.9h-9.92c.83-13.99,6.85-26.59,16.16-35.89,8.2-8.2,18.96-13.85,30.97-15.64,.61-.09,1.17,.09,1.62,.52,.44,.43,.64,.99,.57,1.6l-.88,7.7Z"/><path class="d" d="M90.28,15.12c-2.78-2.78-6.62-4.5-10.87-4.5s-8.09,1.72-10.87,4.5c-2.78,2.78-4.5,6.62-4.5,10.87s1.72,8.09,4.5,10.87c2.78,2.78,6.62,4.5,10.87,4.5s8.09-1.72,10.87-4.5c2.78-2.78,4.5-6.62,4.5-10.87s-1.72-8.09-4.5-10.87M79.42,0c7.17,0,13.67,2.91,18.37,7.61,4.7,4.7,7.61,11.2,7.61,18.37s-2.91,13.67-7.61,18.37c-4.7,4.7-11.2,7.61-18.37,7.61s-13.67-2.91-18.37-7.61c-4.7-4.7-7.61-11.2-7.61-18.37s2.91-13.67,7.61-18.37c4.7-4.7,11.2-7.61,18.37-7.61Z"/><path class="c" d="M124.86,116.31c-.94,11.02-5.81,20.93-13.19,28.31-8.25,8.25-19.65,13.36-32.25,13.36s-24-5.11-32.25-13.36c-7.38-7.38-12.25-17.29-13.19-28.31h-9.93c.83,11.88,5.41,22.72,12.55,31.37l-18.06,18.06c-2.17-.11-4.38,.63-6.05,2.29l-10.16,10.16c-3.11,3.11-3.11,8.15,0,11.26,3.11,3.11,8.15,3.11,11.26,0l10.16-10.16c1.66-1.66,2.41-3.87,2.29-6.05l18.06-18.06c9.6,7.92,21.9,12.69,35.32,12.69,15.33,0,29.2-6.21,39.25-16.26,9.18-9.18,15.15-21.55,16.12-35.3h-9.93Z"/></g><text class="b" transform="translate(145.09 154.04)"><tspan class="g" x="0" y="0">J</tspan><tspan class="f" x="44.45" y="0">o</tspan><tspan x="115.1" y="0">b M</tspan><tspan class="e" x="328.95" y="0">at</tspan><tspan x="431.1" y="0">ch</tspan></text></svg>