<?xml version="1.0" encoding="UTF-8"?><svg id="a" xmlns="http://www.w3.org/2000/svg" viewBox="0 0 1154.93 1146.89"><defs><style>.b{fill:#e5e1e1;}</style></defs><g><path class="b" d="M476.51,233.1h0l-2.21,19.31v.04l-2.21,19.29,9.88,12.43,9.88-12.43-1.98-17.31h0l-1.58-13.78-.86-7.51h0l-.68-5.9c-.05-.47,.1-.9,.44-1.23,.34-.33,.78-.47,1.24-.39,9.11,1.41,17.26,5.72,23.49,11.95,7.13,7.13,11.74,16.78,12.38,27.5h-7.6c-.63-8.63-4.38-16.38-10.14-22.14-3.05-3.05-6.67-5.54-10.68-7.3l4.22,36.85,.19,1.67-1.05,1.32-14.1,17.74-3.18,4-3.18-4-14.1-17.74-1.03-1.34,.17-1.64,4.23-36.96c-4.1,1.76-7.8,4.29-10.92,7.41-5.76,5.76-9.51,13.51-10.14,22.14h-7.6c.64-10.72,5.25-20.37,12.38-27.5,6.28-6.28,14.53-10.61,23.73-11.99,.47-.07,.9,.07,1.24,.4,.34,.33,.49,.75,.44,1.22l-.68,5.9Z"/><path class="b" d="M490.17,193.13c-2.13-2.13-5.07-3.45-8.33-3.45s-6.2,1.32-8.33,3.45c-2.13,2.13-3.45,5.07-3.45,8.33s1.32,6.2,3.45,8.33c2.13,2.13,5.08,3.45,8.33,3.45s6.2-1.32,8.33-3.45c2.13-2.13,3.45-5.08,3.45-8.33s-1.32-6.2-3.45-8.33m-8.33-11.58c5.5,0,10.47,2.23,14.08,5.83,3.6,3.6,5.83,8.58,5.83,14.08s-2.23,10.47-5.83,14.08c-3.6,3.6-8.58,5.83-14.08,5.83s-10.47-2.23-14.08-5.83c-3.6-3.6-5.83-8.58-5.83-14.08s2.23-10.48,5.83-14.08c3.6-3.6,8.58-5.83,14.08-5.83Z"/><path class="b" d="M516.65,270.65c-.72,8.44-4.45,16.03-10.1,21.69-6.32,6.32-15.06,10.23-24.71,10.23s-18.39-3.91-24.71-10.23c-5.66-5.66-9.38-13.24-10.1-21.69h-7.6c.64,9.1,4.15,17.4,9.62,24.03l-13.84,13.84c-1.67-.09-3.36,.48-4.63,1.76l-7.78,7.78c-2.38,2.38-2.38,6.24,0,8.62,2.38,2.38,6.24,2.38,8.62,0l7.78-7.78c1.27-1.27,1.84-2.97,1.76-4.63l13.83-13.83c7.35,6.07,16.78,9.72,27.06,9.72,11.74,0,22.37-4.76,30.07-12.46,7.03-7.03,11.61-16.51,12.35-27.05h-7.6Z"/></g><g><path class="b" d="M202.69,229.15h0l-2.21,19.31v.04l-2.21,19.29,9.88,12.43,9.88-12.43-1.98-17.31h0l-1.58-13.78-.86-7.51h0l-.68-5.9c-.05-.47,.1-.9,.44-1.23,.34-.33,.78-.47,1.24-.39,9.11,1.41,17.26,5.72,23.49,11.95,7.13,7.13,11.74,16.78,12.38,27.5h-7.6c-.63-8.63-4.38-16.38-10.14-22.14-3.05-3.05-6.67-5.54-10.68-7.3l4.22,36.85,.19,1.67-1.05,1.32-14.1,17.74-3.18,4-3.18-4-14.1-17.74-1.03-1.34,.17-1.64,4.23-36.96c-4.1,1.76-7.8,4.29-10.92,7.41-5.76,5.76-9.51,13.51-10.14,22.14h-7.6c.64-10.72,5.25-20.37,12.38-27.5,6.28-6.28,14.53-10.61,23.73-11.99,.47-.07,.9,.07,1.24,.4,.34,.33,.49,.75,.44,1.22l-.68,5.9Z"/><path class="b" d="M216.35,189.18c-2.13-2.13-5.07-3.45-8.33-3.45s-6.2,1.32-8.33,3.45c-2.13,2.13-3.45,5.07-3.45,8.33s1.32,6.2,3.45,8.33c2.13,2.13,5.08,3.45,8.33,3.45s6.2-1.32,8.33-3.45c2.13-2.13,3.45-5.08,3.45-8.33s-1.32-6.2-3.45-8.33m-8.33-11.58c5.5,0,10.47,2.23,14.08,5.83,3.6,3.6,5.83,8.58,5.83,14.08s-2.23,10.47-5.83,14.08c-3.6,3.6-8.58,5.83-14.08,5.83s-10.47-2.23-14.08-5.83c-3.6-3.6-5.83-8.58-5.83-14.08s2.23-10.48,5.83-14.08c3.6-3.6,8.58-5.83,14.08-5.83Z"/><path class="b" d="M242.83,266.71c-.72,8.44-4.45,16.03-10.1,21.69-6.32,6.32-15.06,10.23-24.71,10.23s-18.39-3.91-24.71-10.23c-5.66-5.66-9.38-13.24-10.1-21.69h-7.6c.64,9.1,4.15,17.4,9.62,24.03l-13.84,13.84c-1.67-.09-3.36,.48-4.63,1.76l-7.78,7.78c-2.38,2.38-2.38,6.24,0,8.62,2.38,2.38,6.24,2.38,8.62,0l7.78-7.78c1.27-1.27,1.84-2.97,1.76-4.63l13.83-13.83c7.35,6.07,16.78,9.72,27.06,9.72,11.74,0,22.37-4.76,30.07-12.46,7.03-7.03,11.61-16.51,12.35-27.05h-7.6Z"/></g><g><path class="b" d="M68.79,61.2h0l-2.21,19.31v.04l-2.21,19.29,9.88,12.43,9.88-12.43-1.98-17.31h0l-1.58-13.78-.86-7.51h0l-.68-5.9c-.05-.47,.1-.9,.44-1.23,.34-.33,.78-.47,1.24-.39,9.11,1.41,17.26,5.72,23.49,11.95,7.13,7.13,11.74,16.78,12.38,27.5h-7.6c-.63-8.63-4.38-16.38-10.14-22.14-3.05-3.05-6.67-5.54-10.68-7.3l4.22,36.85,.19,1.67-1.05,1.32-14.1,17.74-3.18,4-3.18-4-14.1-17.74-1.03-1.34,.17-1.64,4.23-36.96c-4.1,1.76-7.8,4.29-10.92,7.41-5.76,5.76-9.51,13.51-10.14,22.14h-7.6c.64-10.72,5.25-20.37,12.38-27.5,6.28-6.28,14.53-10.61,23.73-11.99,.47-.07,.9,.07,1.24,.4,.34,.33,.49,.75,.44,1.22l-.68,5.9Z"/><path class="b" d="M82.46,21.24c-2.13-2.13-5.07-3.45-8.33-3.45s-6.2,1.32-8.33,3.45c-2.13,2.13-3.45,5.07-3.45,8.33s1.32,6.2,3.45,8.33c2.13,2.13,5.08,3.45,8.33,3.45s6.2-1.32,8.33-3.45c2.13-2.13,3.45-5.08,3.45-8.33s-1.32-6.2-3.45-8.33m-8.33-11.58c5.5,0,10.47,2.23,14.08,5.83,3.6,3.6,5.83,8.58,5.83,14.08s-2.23,10.47-5.83,14.08c-3.6,3.6-8.58,5.83-14.08,5.83s-10.47-2.23-14.08-5.83c-3.6-3.6-5.83-8.58-5.83-14.08s2.23-10.48,5.83-14.08c3.6-3.6,8.58-5.83,14.08-5.83Z"/><path class="b" d="M108.94,98.76c-.72,8.44-4.45,16.03-10.1,21.69-6.32,6.32-15.06,10.23-24.71,10.23s-18.39-3.91-24.71-10.23c-5.66-5.66-9.38-13.24-10.1-21.69h-7.6c.64,9.1,4.15,17.4,9.62,24.03l-13.84,13.84c-1.67-.09-3.36,.48-4.63,1.76l-7.78,7.78c-2.38,2.38-2.38,6.24,0,8.62,2.38,2.38,6.24,2.38,8.62,0l7.78-7.78c1.27-1.27,1.84-2.97,1.76-4.63l13.83-13.83c7.35,6.07,16.78,9.72,27.06,9.72,11.74,0,22.37-4.76,30.07-12.46,7.03-7.03,11.61-16.51,12.35-27.05h-7.6Z"/></g><g><path class="b" d="M356.63,67.57h0l-2.21,19.31v.04l-2.21,19.29,9.88,12.43,9.88-12.43-1.98-17.31h0l-1.58-13.78-.86-7.51h0l-.68-5.9c-.05-.47,.1-.9,.44-1.23,.34-.33,.78-.47,1.24-.39,9.11,1.41,17.26,5.72,23.49,11.95,7.13,7.13,11.74,16.78,12.38,27.5h-7.6c-.63-8.63-4.38-16.38-10.14-22.14-3.05-3.05-6.67-5.54-10.68-7.3l4.22,36.85,.19,1.67-1.05,1.32-14.1,17.74-3.18,4-3.18-4-14.1-17.74-1.03-1.34,.17-1.64,4.23-36.96c-4.1,1.76-7.8,4.29-10.92,7.41-5.76,5.76-9.51,13.51-10.14,22.14h-7.6c.64-10.72,5.25-20.37,12.38-27.5,6.28-6.28,14.53-10.61,23.73-11.99,.47-.07,.9,.07,1.24,.4,.34,.33,.49,.75,.44,1.22l-.68,5.9Z"/><path class="b" d="M370.3,27.61c-2.13-2.13-5.07-3.45-8.33-3.45s-6.2,1.32-8.33,3.45c-2.13,2.13-3.45,5.07-3.45,8.33s1.32,6.2,3.45,8.33c2.13,2.13,5.08,3.45,8.33,3.45s6.2-1.32,8.33-3.45c2.13-2.13,3.45-5.08,3.45-8.33s-1.32-6.2-3.45-8.33m-8.33-11.58c5.5,0,10.47,2.23,14.08,5.83,3.6,3.6,5.83,8.58,5.83,14.08s-2.23,10.47-5.83,14.08c-3.6,3.6-8.58,5.83-14.08,5.83s-10.47-2.23-14.08-5.83c-3.6-3.6-5.83-8.58-5.83-14.08s2.23-10.48,5.83-14.08c3.6-3.6,8.58-5.83,14.08-5.83Z"/><path class="b" d="M396.78,105.13c-.72,8.44-4.45,16.03-10.1,21.69-6.32,6.32-15.06,10.23-24.71,10.23s-18.39-3.91-24.71-10.23c-5.66-5.66-9.38-13.24-10.1-21.69h-7.6c.64,9.1,4.15,17.4,9.62,24.03l-13.84,13.84c-1.67-.09-3.36,.48-4.63,1.76l-7.78,7.78c-2.38,2.38-2.38,6.24,0,8.62,2.38,2.38,6.24,2.38,8.62,0l7.78-7.78c1.27-1.27,1.84-2.97,1.76-4.63l13.83-13.83c7.35,6.07,16.78,9.72,27.06,9.72,11.74,0,22.37-4.76,30.07-12.46,7.03-7.03,11.61-16.51,12.35-27.05h-7.6Z"/></g><g><path class="b" d="M947.85,61.69h0l-2.21,19.31v.04l-2.21,19.29,9.88,12.43,9.88-12.43-1.98-17.31h0l-1.58-13.78-.86-7.51h0l-.68-5.9c-.05-.47,.1-.9,.44-1.23,.34-.33,.78-.47,1.24-.39,9.11,1.41,17.26,5.72,23.49,11.95,7.13,7.13,11.74,16.78,12.38,27.5h-7.6c-.63-8.63-4.38-16.38-10.14-22.14-3.05-3.05-6.67-5.54-10.68-7.3l4.22,36.85,.19,1.67-1.05,1.32-14.1,17.74-3.18,4-3.18-4-14.1-17.74-1.03-1.34,.17-1.64,4.23-36.96c-4.1,1.76-7.8,4.29-10.92,7.41-5.76,5.76-9.51,13.51-10.14,22.14h-7.6c.64-10.72,5.25-20.37,12.38-27.5,6.28-6.28,14.53-10.61,23.73-11.99,.47-.07,.9,.07,1.24,.4,.34,.33,.49,.75,.44,1.22l-.68,5.9Z"/><path class="b" d="M961.52,21.73c-2.13-2.13-5.07-3.45-8.33-3.45s-6.2,1.32-8.33,3.45c-2.13,2.13-3.45,5.07-3.45,8.33s1.32,6.2,3.45,8.33c2.13,2.13,5.08,3.45,8.33,3.45s6.2-1.32,8.33-3.45c2.13-2.13,3.45-5.08,3.45-8.33s-1.32-6.2-3.45-8.33m-8.33-11.58c5.5,0,10.47,2.23,14.08,5.83,3.6,3.6,5.83,8.58,5.83,14.08s-2.23,10.47-5.83,14.08c-3.6,3.6-8.58,5.83-14.08,5.83s-10.47-2.23-14.08-5.83c-3.6-3.6-5.83-8.58-5.83-14.08s2.23-10.48,5.83-14.08c3.6-3.6,8.58-5.83,14.08-5.83Z"/><path class="b" d="M988,99.25c-.72,8.44-4.45,16.03-10.1,21.69-6.32,6.32-15.06,10.23-24.71,10.23s-18.39-3.91-24.71-10.23c-5.66-5.66-9.38-13.24-10.1-21.69h-7.6c.64,9.1,4.15,17.4,9.62,24.03l-13.84,13.84c-1.67-.09-3.36,.48-4.63,1.76l-7.78,7.78c-2.38,2.38-2.38,6.24,0,8.62,2.38,2.38,6.24,2.38,8.62,0l7.78-7.78c1.27-1.27,1.84-2.97,1.76-4.63l13.83-13.83c7.35,6.07,16.78,9.72,27.06,9.72,11.74,0,22.37-4.76,30.07-12.46,7.03-7.03,11.61-16.51,12.35-27.05h-7.6Z"/></g><g><path class="b" d="M1059.41,226.27h0l-2.21,19.31v.04l-2.21,19.29,9.88,12.43,9.88-12.43-1.98-17.31h0l-1.58-13.78-.86-7.51h0l-.68-5.9c-.05-.47,.1-.9,.44-1.23,.34-.33,.78-.47,1.24-.39,9.11,1.41,17.26,5.72,23.49,11.95,7.13,7.13,11.74,16.78,12.38,27.5h-7.6c-.63-8.63-4.38-16.38-10.14-22.14-3.05-3.05-6.67-5.54-10.68-7.3l4.22,36.85,.19,1.67-1.05,1.32-14.1,17.74-3.18,4-3.18-4-14.1-17.74-1.03-1.34,.17-1.64,4.23-36.96c-4.1,1.76-7.8,4.29-10.92,7.41-5.76,5.76-9.51,13.51-10.14,22.14h-7.6c.64-10.72,5.25-20.37,12.38-27.5,6.28-6.28,14.53-10.61,23.73-11.99,.47-.07,.9,.07,1.24,.4,.34,.33,.49,.75,.44,1.22l-.68,5.9Z"/><path class="b" d="M1073.08,186.31c-2.13-2.13-5.07-3.45-8.33-3.45s-6.2,1.32-8.33,3.45c-2.13,2.13-3.45,5.07-3.45,8.33s1.32,6.2,3.45,8.33c2.13,2.13,5.08,3.45,8.33,3.45s6.2-1.32,8.33-3.45c2.13-2.13,3.45-5.08,3.45-8.33s-1.32-6.2-3.45-8.33m-8.33-11.58c5.5,0,10.47,2.23,14.08,5.83,3.6,3.6,5.83,8.58,5.83,14.08s-2.23,10.47-5.83,14.08c-3.6,3.6-8.58,5.83-14.08,5.83s-10.47-2.23-14.08-5.83c-3.6-3.6-5.83-8.58-5.83-14.08s2.23-10.48,5.83-14.08c3.6-3.6,8.58-5.83,14.08-5.83Z"/><path class="b" d="M1099.56,263.83c-.72,8.44-4.45,16.03-10.1,21.69-6.32,6.32-15.06,10.23-24.71,10.23s-18.39-3.91-24.71-10.23c-5.66-5.66-9.38-13.24-10.1-21.69h-7.6c.64,9.1,4.15,17.4,9.62,24.03l-13.84,13.84c-1.67-.09-3.36,.48-4.63,1.76l-7.78,7.78c-2.38,2.38-2.38,6.24,0,8.62,2.38,2.38,6.24,2.38,8.62,0l7.78-7.78c1.27-1.27,1.84-2.97,1.76-4.63l13.83-13.83c7.35,6.07,16.78,9.72,27.06,9.72,11.74,0,22.37-4.76,30.07-12.46,7.03-7.03,11.61-16.51,12.35-27.05h-7.6Z"/></g><g><path class="b" d="M787.66,232.73h0l-2.21,19.31v.04l-2.21,19.29,9.88,12.43,9.88-12.43-1.98-17.31h0l-1.58-13.78-.86-7.51h0l-.68-5.9c-.05-.47,.1-.9,.44-1.23,.34-.33,.78-.47,1.24-.39,9.11,1.41,17.26,5.72,23.49,11.95,7.13,7.13,11.74,16.78,12.38,27.5h-7.6c-.63-8.63-4.38-16.38-10.14-22.14-3.05-3.05-6.67-5.54-10.68-7.3l4.22,36.85,.19,1.67-1.05,1.32-14.1,17.74-3.18,4-3.18-4-14.1-17.74-1.03-1.34,.17-1.64,4.23-36.96c-4.1,1.76-7.8,4.29-10.92,7.41-5.76,5.76-9.51,13.51-10.14,22.14h-7.6c.64-10.72,5.25-20.37,12.38-27.5,6.28-6.28,14.53-10.61,23.73-11.99,.47-.07,.9,.07,1.24,.4,.34,.33,.49,.75,.44,1.22l-.68,5.9Z"/><path class="b" d="M801.32,192.77c-2.13-2.13-5.07-3.45-8.33-3.45s-6.2,1.32-8.33,3.45c-2.13,2.13-3.45,5.07-3.45,8.33s1.32,6.2,3.45,8.33c2.13,2.13,5.08,3.45,8.33,3.45s6.2-1.32,8.33-3.45c2.13-2.13,3.45-5.08,3.45-8.33s-1.32-6.2-3.45-8.33m-8.33-11.58c5.5,0,10.47,2.23,14.08,5.83,3.6,3.6,5.83,8.58,5.83,14.08s-2.23,10.47-5.83,14.08c-3.6,3.6-8.58,5.83-14.08,5.83s-10.47-2.23-14.08-5.83c-3.6-3.6-5.83-8.58-5.83-14.08s2.23-10.48,5.83-14.08c3.6-3.6,8.58-5.83,14.08-5.83Z"/><path class="b" d="M827.81,270.29c-.72,8.44-4.45,16.03-10.1,21.69-6.32,6.32-15.06,10.23-24.71,10.23s-18.39-3.91-24.71-10.23c-5.66-5.66-9.38-13.24-10.1-21.69h-7.6c.64,9.1,4.15,17.4,9.62,24.03l-13.84,13.84c-1.67-.09-3.36,.48-4.63,1.76l-7.78,7.78c-2.38,2.38-2.38,6.24,0,8.62,2.38,2.38,6.24,2.38,8.62,0l7.78-7.78c1.27-1.27,1.84-2.97,1.76-4.63l13.83-13.83c7.35,6.07,16.78,9.72,27.06,9.72,11.74,0,22.37-4.76,30.07-12.46,7.03-7.03,11.61-16.51,12.35-27.05h-7.6Z"/></g><g><path class="b" d="M651.43,51.55h0l-2.21,19.31v.04l-2.21,19.29,9.88,12.43,9.88-12.43-1.98-17.31h0l-1.58-13.78-.86-7.51h0l-.68-5.9c-.05-.47,.1-.9,.44-1.23,.34-.33,.78-.47,1.24-.39,9.11,1.41,17.26,5.72,23.49,11.95,7.13,7.13,11.74,16.78,12.38,27.5h-7.6c-.63-8.63-4.38-16.38-10.14-22.14-3.05-3.05-6.67-5.54-10.68-7.3l4.22,36.85,.19,1.67-1.05,1.32-14.1,17.74-3.18,4-3.18-4-14.1-17.74-1.03-1.34,.17-1.64,4.23-36.96c-4.1,1.76-7.8,4.29-10.92,7.41-5.76,5.76-9.51,13.51-10.14,22.14h-7.6c.64-10.72,5.25-20.37,12.38-27.5,6.28-6.28,14.53-10.61,23.73-11.99,.47-.07,.9,.07,1.24,.4,.34,.33,.49,.75,.44,1.22l-.68,5.9Z"/><path class="b" d="M665.09,11.58c-2.13-2.13-5.07-3.45-8.33-3.45s-6.2,1.32-8.33,3.45c-2.13,2.13-3.45,5.07-3.45,8.33s1.32,6.2,3.45,8.33c2.13,2.13,5.08,3.45,8.33,3.45s6.2-1.32,8.33-3.45c2.13-2.13,3.45-5.08,3.45-8.33s-1.32-6.2-3.45-8.33m-8.33-11.58c5.5,0,10.47,2.23,14.08,5.83,3.6,3.6,5.83,8.58,5.83,14.08s-2.23,10.47-5.83,14.08c-3.6,3.6-8.58,5.83-14.08,5.83s-10.47-2.23-14.08-5.83c-3.6-3.6-5.83-8.58-5.83-14.08s2.23-10.48,5.83-14.08c3.6-3.6,8.58-5.83,14.08-5.83Z"/><path class="b" d="M691.58,89.1c-.72,8.44-4.45,16.03-10.1,21.69-6.32,6.32-15.06,10.23-24.71,10.23s-18.39-3.91-24.71-10.23c-5.66-5.66-9.38-13.24-10.1-21.69h-7.6c.64,9.1,4.15,17.4,9.62,24.03l-13.84,13.84c-1.67-.09-3.36,.48-4.63,1.76l-7.78,7.78c-2.38,2.38-2.38,6.24,0,8.62,2.38,2.38,6.24,2.38,8.62,0l7.78-7.78c1.27-1.27,1.84-2.97,1.76-4.63l13.83-13.83c7.35,6.07,16.78,9.72,27.06,9.72,11.74,0,22.37-4.76,30.07-12.46,7.03-7.03,11.61-16.51,12.35-27.05h-7.6Z"/></g><g><path class="b" d="M323.38,356.11h0l-2.21,19.31v.04l-2.21,19.29,9.88,12.43,9.88-12.43-1.98-17.31h0l-1.58-13.78-.86-7.51h0l-.68-5.9c-.05-.47,.1-.9,.44-1.23,.34-.33,.78-.47,1.24-.39,9.11,1.41,17.26,5.72,23.49,11.95,7.13,7.13,11.74,16.78,12.38,27.5h-7.6c-.63-8.63-4.38-16.38-10.14-22.14-3.05-3.05-6.67-5.54-10.68-7.3l4.22,36.85,.19,1.67-1.05,1.32-14.1,17.74-3.18,4-3.18-4-14.1-17.74-1.03-1.34,.17-1.64,4.23-36.96c-4.1,1.76-7.8,4.29-10.92,7.41-5.76,5.76-9.51,13.51-10.14,22.14h-7.6c.64-10.72,5.25-20.37,12.38-27.5,6.28-6.28,14.53-10.61,23.73-11.99,.47-.07,.9,.07,1.24,.4,.34,.33,.49,.75,.44,1.22l-.68,5.9Z"/><path class="b" d="M337.05,316.14c-2.13-2.13-5.07-3.45-8.33-3.45s-6.2,1.32-8.33,3.45c-2.13,2.13-3.45,5.07-3.45,8.33s1.32,6.2,3.45,8.33c2.13,2.13,5.08,3.45,8.33,3.45s6.2-1.32,8.33-3.45c2.13-2.13,3.45-5.08,3.45-8.33s-1.32-6.2-3.45-8.33m-8.33-11.58c5.5,0,10.47,2.23,14.08,5.83,3.6,3.6,5.83,8.58,5.83,14.08s-2.23,10.47-5.83,14.08c-3.6,3.6-8.58,5.83-14.08,5.83s-10.47-2.23-14.08-5.83c-3.6-3.6-5.83-8.58-5.83-14.08s2.23-10.48,5.83-14.08c3.6-3.6,8.58-5.83,14.08-5.83Z"/><path class="b" d="M363.53,393.67c-.72,8.44-4.45,16.03-10.1,21.69-6.32,6.32-15.06,10.23-24.71,10.23s-18.39-3.91-24.71-10.23c-5.66-5.66-9.38-13.24-10.1-21.69h-7.6c.64,9.1,4.15,17.4,9.62,24.03l-13.84,13.84c-1.67-.09-3.36,.48-4.63,1.76l-7.78,7.78c-2.38,2.38-2.38,6.24,0,8.62,2.38,2.38,6.24,2.38,8.62,0l7.78-7.78c1.27-1.27,1.84-2.97,1.76-4.63l13.83-13.83c7.35,6.07,16.78,9.72,27.06,9.72,11.74,0,22.37-4.76,30.07-12.46,7.03-7.03,11.61-16.51,12.35-27.05h-7.6Z"/></g><g><path class="b" d="M73.6,367.84h0l-2.21,19.31v.04l-2.21,19.29,9.88,12.43,9.88-12.43-1.98-17.31h0l-1.58-13.78-.86-7.51h0l-.68-5.9c-.05-.47,.1-.9,.44-1.23,.34-.33,.78-.47,1.24-.39,9.11,1.41,17.26,5.72,23.49,11.95,7.13,7.13,11.74,16.78,12.38,27.5h-7.6c-.63-8.63-4.38-16.38-10.14-22.14-3.05-3.05-6.67-5.54-10.68-7.3l4.22,36.85,.19,1.67-1.05,1.32-14.1,17.74-3.18,4-3.18-4-14.1-17.74-1.03-1.34,.17-1.64,4.23-36.96c-4.1,1.76-7.8,4.29-10.92,7.41-5.76,5.76-9.51,13.51-10.14,22.14h-7.6c.64-10.72,5.25-20.37,12.38-27.5,6.28-6.28,14.53-10.61,23.73-11.99,.47-.07,.9,.07,1.24,.4,.34,.33,.49,.75,.44,1.22l-.68,5.9Z"/><path class="b" d="M87.27,327.87c-2.13-2.13-5.07-3.45-8.33-3.45s-6.2,1.32-8.33,3.45c-2.13,2.13-3.45,5.07-3.45,8.33s1.32,6.2,3.45,8.33c2.13,2.13,5.08,3.45,8.33,3.45s6.2-1.32,8.33-3.45c2.13-2.13,3.45-5.08,3.45-8.33s-1.32-6.2-3.45-8.33m-8.33-11.58c5.5,0,10.47,2.23,14.08,5.83,3.6,3.6,5.83,8.58,5.83,14.08s-2.23,10.47-5.83,14.08c-3.6,3.6-8.58,5.83-14.08,5.83s-10.47-2.23-14.08-5.83c-3.6-3.6-5.83-8.58-5.83-14.08s2.23-10.48,5.83-14.08c3.6-3.6,8.58-5.83,14.08-5.83Z"/><path class="b" d="M113.75,405.39c-.72,8.44-4.45,16.03-10.1,21.69-6.32,6.32-15.06,10.23-24.71,10.23s-18.39-3.91-24.71-10.23c-5.66-5.66-9.38-13.24-10.1-21.69h-7.6c.64,9.1,4.15,17.4,9.62,24.03l-13.84,13.84c-1.67-.09-3.36,.48-4.63,1.76l-7.78,7.78c-2.38,2.38-2.38,6.24,0,8.62,2.38,2.38,6.24,2.38,8.62,0l7.78-7.78c1.27-1.27,1.84-2.97,1.76-4.63l13.83-13.83c7.35,6.07,16.78,9.72,27.06,9.72,11.74,0,22.37-4.76,30.07-12.46,7.03-7.03,11.61-16.51,12.35-27.05h-7.6Z"/></g><g><path class="b" d="M621.96,360.19h0l-2.21,19.31v.04l-2.21,19.29,9.88,12.43,9.88-12.43-1.98-17.31h0l-1.58-13.78-.86-7.51h0l-.68-5.9c-.05-.47,.1-.9,.44-1.23,.34-.33,.78-.47,1.24-.39,9.11,1.41,17.26,5.72,23.49,11.95,7.13,7.13,11.74,16.78,12.38,27.5h-7.6c-.63-8.63-4.38-16.38-10.14-22.14-3.05-3.05-6.67-5.54-10.68-7.3l4.22,36.85,.19,1.67-1.05,1.32-14.1,17.74-3.18,4-3.18-4-14.1-17.74-1.03-1.34,.17-1.64,4.23-36.96c-4.1,1.76-7.8,4.29-10.92,7.41-5.76,5.76-9.51,13.51-10.14,22.14h-7.6c.64-10.72,5.25-20.37,12.38-27.5,6.28-6.28,14.53-10.61,23.73-11.99,.47-.07,.9,.07,1.24,.4,.34,.33,.49,.75,.44,1.22l-.68,5.9Z"/><path class="b" d="M635.63,320.23c-2.13-2.13-5.07-3.45-8.33-3.45s-6.2,1.32-8.33,3.45c-2.13,2.13-3.45,5.07-3.45,8.33s1.32,6.2,3.45,8.33c2.13,2.13,5.08,3.45,8.33,3.45s6.2-1.32,8.33-3.45c2.13-2.13,3.45-5.08,3.45-8.33s-1.32-6.2-3.45-8.33m-8.33-11.58c5.5,0,10.47,2.23,14.08,5.83,3.6,3.6,5.83,8.58,5.83,14.08s-2.23,10.47-5.83,14.08c-3.6,3.6-8.58,5.83-14.08,5.83s-10.47-2.23-14.08-5.83c-3.6-3.6-5.83-8.58-5.83-14.08s2.23-10.48,5.83-14.08c3.6-3.6,8.58-5.83,14.08-5.83Z"/><path class="b" d="M662.11,397.75c-.72,8.44-4.45,16.03-10.1,21.69-6.32,6.32-15.06,10.23-24.71,10.23s-18.39-3.91-24.71-10.23c-5.66-5.66-9.38-13.24-10.1-21.69h-7.6c.64,9.1,4.15,17.4,9.62,24.03l-13.84,13.84c-1.67-.09-3.36,.48-4.63,1.76l-7.78,7.78c-2.38,2.38-2.38,6.24,0,8.62,2.38,2.38,6.24,2.38,8.62,0l7.78-7.78c1.27-1.27,1.84-2.97,1.76-4.63l13.83-13.83c7.35,6.07,16.78,9.72,27.06,9.72,11.74,0,22.37-4.76,30.07-12.46,7.03-7.03,11.61-16.51,12.35-27.05h-7.6Z"/></g><g><path class="b" d="M947.84,359.84h0l-2.21,19.31v.04l-2.21,19.29,9.88,12.43,9.88-12.43-1.98-17.31h0l-1.58-13.78-.86-7.51h0l-.68-5.9c-.05-.47,.1-.9,.44-1.23,.34-.33,.78-.47,1.24-.39,9.11,1.41,17.26,5.72,23.49,11.95,7.13,7.13,11.74,16.78,12.38,27.5h-7.6c-.63-8.63-4.38-16.38-10.14-22.14-3.05-3.05-6.67-5.54-10.68-7.3l4.22,36.85,.19,1.67-1.05,1.32-14.1,17.74-3.18,4-3.18-4-14.1-17.74-1.03-1.34,.17-1.64,4.23-36.96c-4.1,1.76-7.8,4.29-10.92,7.41-5.76,5.76-9.51,13.51-10.14,22.14h-7.6c.64-10.72,5.25-20.37,12.38-27.5,6.28-6.28,14.53-10.61,23.73-11.99,.47-.07,.9,.07,1.24,.4,.34,.33,.49,.75,.44,1.22l-.68,5.9Z"/><path class="b" d="M961.5,319.87c-2.13-2.13-5.07-3.45-8.33-3.45s-6.2,1.32-8.33,3.45c-2.13,2.13-3.45,5.07-3.45,8.33s1.32,6.2,3.45,8.33c2.13,2.13,5.08,3.45,8.33,3.45s6.2-1.32,8.33-3.45c2.13-2.13,3.45-5.08,3.45-8.33s-1.32-6.2-3.45-8.33m-8.33-11.58c5.5,0,10.47,2.23,14.08,5.83,3.6,3.6,5.83,8.58,5.83,14.08s-2.23,10.47-5.83,14.08c-3.6,3.6-8.58,5.83-14.08,5.83s-10.47-2.23-14.08-5.83c-3.6-3.6-5.83-8.58-5.83-14.08s2.23-10.48,5.83-14.08c3.6-3.6,8.58-5.83,14.08-5.83Z"/><path class="b" d="M987.99,397.4c-.72,8.44-4.45,16.03-10.1,21.69-6.32,6.32-15.06,10.23-24.71,10.23s-18.39-3.91-24.71-10.23c-5.66-5.66-9.38-13.24-10.1-21.69h-7.6c.64,9.1,4.15,17.4,9.62,24.03l-13.84,13.84c-1.67-.09-3.36,.48-4.63,1.76l-7.78,7.78c-2.38,2.38-2.38,6.24,0,8.62,2.38,2.38,6.24,2.38,8.62,0l7.78-7.78c1.27-1.27,1.84-2.97,1.76-4.63l13.83-13.83c7.35,6.07,16.78,9.72,27.06,9.72,11.74,0,22.37-4.76,30.07-12.46,7.03-7.03,11.61-16.51,12.35-27.05h-7.6Z"/></g><g><path class="b" d="M473.93,547.54h0l-2.21,19.31v.04l-2.21,19.29,9.88,12.43,9.88-12.43-1.98-17.31h0l-1.58-13.78-.86-7.51h0l-.68-5.9c-.05-.47,.1-.9,.44-1.23,.34-.33,.78-.47,1.24-.39,9.11,1.41,17.26,5.72,23.49,11.95,7.13,7.13,11.74,16.78,12.38,27.5h-7.6c-.63-8.63-4.38-16.38-10.14-22.14-3.05-3.05-6.67-5.54-10.68-7.3l4.22,36.85,.19,1.67-1.05,1.32-14.1,17.74-3.18,4-3.18-4-14.1-17.74-1.03-1.34,.17-1.64,4.23-36.96c-4.1,1.76-7.8,4.29-10.92,7.41-5.76,5.76-9.51,13.51-10.14,22.14h-7.6c.64-10.72,5.25-20.37,12.38-27.5,6.28-6.28,14.53-10.61,23.73-11.99,.47-.07,.9,.07,1.24,.4,.34,.33,.49,.75,.44,1.22l-.68,5.9Z"/><path class="b" d="M487.59,507.58c-2.13-2.13-5.07-3.45-8.33-3.45s-6.2,1.32-8.33,3.45c-2.13,2.13-3.45,5.07-3.45,8.33s1.32,6.2,3.45,8.33c2.13,2.13,5.08,3.45,8.33,3.45s6.2-1.32,8.33-3.45c2.13-2.13,3.45-5.08,3.45-8.33s-1.32-6.2-3.45-8.33m-8.33-11.58c5.5,0,10.47,2.23,14.08,5.83,3.6,3.6,5.83,8.58,5.83,14.08s-2.23,10.47-5.83,14.08c-3.6,3.6-8.58,5.83-14.08,5.83s-10.47-2.23-14.08-5.83c-3.6-3.6-5.83-8.58-5.83-14.08s2.23-10.48,5.83-14.08c3.6-3.6,8.58-5.83,14.08-5.83Z"/><path class="b" d="M514.08,585.1c-.72,8.44-4.45,16.03-10.1,21.69-6.32,6.32-15.06,10.23-24.71,10.23s-18.39-3.91-24.71-10.23c-5.66-5.66-9.38-13.24-10.1-21.69h-7.6c.64,9.1,4.15,17.4,9.62,24.03l-13.84,13.84c-1.67-.09-3.36,.48-4.63,1.76l-7.78,7.78c-2.38,2.38-2.38,6.24,0,8.62,2.38,2.38,6.24,2.38,8.62,0l7.78-7.78c1.27-1.27,1.84-2.97,1.76-4.63l13.83-13.83c7.35,6.07,16.78,9.72,27.06,9.72,11.74,0,22.37-4.76,30.07-12.46,7.03-7.03,11.61-16.51,12.35-27.05h-7.6Z"/></g><g><path class="b" d="M1086.18,546.63h0l-2.21,19.31v.04l-2.21,19.29,9.88,12.43,9.88-12.43-1.98-17.31h0l-1.58-13.78-.86-7.51h0l-.68-5.9c-.05-.47,.1-.9,.44-1.23,.34-.33,.78-.47,1.24-.39,9.11,1.41,17.26,5.72,23.49,11.95,7.13,7.13,11.74,16.78,12.38,27.5h-7.6c-.63-8.63-4.38-16.38-10.14-22.14-3.05-3.05-6.67-5.54-10.68-7.3l4.22,36.85,.19,1.67-1.05,1.32-14.1,17.74-3.18,4-3.18-4-14.1-17.74-1.03-1.34,.17-1.64,4.23-36.96c-4.1,1.76-7.8,4.29-10.92,7.41-5.76,5.76-9.51,13.51-10.14,22.14h-7.6c.64-10.72,5.25-20.37,12.38-27.5,6.28-6.28,14.53-10.61,23.73-11.99,.47-.07,.9,.07,1.24,.4,.34,.33,.49,.75,.44,1.22l-.68,5.9Z"/><path class="b" d="M1099.84,506.67c-2.13-2.13-5.07-3.45-8.33-3.45s-6.2,1.32-8.33,3.45c-2.13,2.13-3.45,5.07-3.45,8.33s1.32,6.2,3.45,8.33c2.13,2.13,5.08,3.45,8.33,3.45s6.2-1.32,8.33-3.45c2.13-2.13,3.45-5.08,3.45-8.33s-1.32-6.2-3.45-8.33m-8.33-11.58c5.5,0,10.47,2.23,14.08,5.83,3.6,3.6,5.83,8.58,5.83,14.08s-2.23,10.47-5.83,14.08c-3.6,3.6-8.58,5.83-14.08,5.83s-10.47-2.23-14.08-5.83c-3.6-3.6-5.83-8.58-5.83-14.08s2.23-10.48,5.83-14.08c3.6-3.6,8.58-5.83,14.08-5.83Z"/><path class="b" d="M1126.33,584.19c-.72,8.44-4.45,16.03-10.1,21.69-6.32,6.32-15.06,10.23-24.71,10.23s-18.39-3.91-24.71-10.23c-5.66-5.66-9.38-13.24-10.1-21.69h-7.6c.64,9.1,4.15,17.4,9.62,24.03l-13.84,13.84c-1.67-.09-3.36,.48-4.63,1.76l-7.78,7.78c-2.38,2.38-2.38,6.24,0,8.62,2.38,2.38,6.24,2.38,8.62,0l7.78-7.78c1.27-1.27,1.84-2.97,1.76-4.63l13.83-13.83c7.35,6.07,16.78,9.72,27.06,9.72,11.74,0,22.37-4.76,30.07-12.46,7.03-7.03,11.61-16.51,12.35-27.05h-7.6Z"/></g><g><path class="b" d="M788.86,544.3h0l-2.21,19.31v.04l-2.21,19.29,9.88,12.43,9.88-12.43-1.98-17.31h0l-1.58-13.78-.86-7.51h0l-.68-5.9c-.05-.47,.1-.9,.44-1.23,.34-.33,.78-.47,1.24-.39,9.11,1.41,17.26,5.72,23.49,11.95,7.13,7.13,11.74,16.78,12.38,27.5h-7.6c-.63-8.63-4.38-16.38-10.14-22.14-3.05-3.05-6.67-5.54-10.68-7.3l4.22,36.85,.19,1.67-1.05,1.32-14.1,17.74-3.18,4-3.18-4-14.1-17.74-1.03-1.34,.17-1.64,4.23-36.96c-4.1,1.76-7.8,4.29-10.92,7.41-5.76,5.76-9.51,13.51-10.14,22.14h-7.6c.64-10.72,5.25-20.37,12.38-27.5,6.28-6.28,14.53-10.61,23.73-11.99,.47-.07,.9,.07,1.24,.4,.34,.33,.49,.75,.44,1.22l-.68,5.9Z"/><path class="b" d="M802.52,504.33c-2.13-2.13-5.07-3.45-8.33-3.45s-6.2,1.32-8.33,3.45c-2.13,2.13-3.45,5.07-3.45,8.33s1.32,6.2,3.45,8.33c2.13,2.13,5.08,3.45,8.33,3.45s6.2-1.32,8.33-3.45c2.13-2.13,3.45-5.08,3.45-8.33s-1.32-6.2-3.45-8.33m-8.33-11.58c5.5,0,10.47,2.23,14.08,5.83,3.6,3.6,5.83,8.58,5.83,14.08s-2.23,10.47-5.83,14.08c-3.6,3.6-8.58,5.83-14.08,5.83s-10.47-2.23-14.08-5.83c-3.6-3.6-5.83-8.58-5.83-14.08s2.23-10.48,5.83-14.08c3.6-3.6,8.58-5.83,14.08-5.83Z"/><path class="b" d="M829,581.86c-.72,8.44-4.45,16.03-10.1,21.69-6.32,6.32-15.06,10.23-24.71,10.23s-18.39-3.91-24.71-10.23c-5.66-5.66-9.38-13.24-10.1-21.69h-7.6c.64,9.1,4.15,17.4,9.62,24.03l-13.84,13.84c-1.67-.09-3.36,.48-4.63,1.76l-7.78,7.78c-2.38,2.38-2.38,6.24,0,8.62,2.38,2.38,6.24,2.38,8.62,0l7.78-7.78c1.27-1.27,1.84-2.97,1.76-4.63l13.83-13.83c7.35,6.07,16.78,9.72,27.06,9.72,11.74,0,22.37-4.76,30.07-12.46,7.03-7.03,11.61-16.51,12.35-27.05h-7.6Z"/></g><g><path class="b" d="M191.97,535.77h0l-2.21,19.31v.04l-2.21,19.29,9.88,12.43,9.88-12.43-1.98-17.31h0l-1.58-13.78-.86-7.51h0l-.68-5.9c-.05-.47,.1-.9,.44-1.23,.34-.33,.78-.47,1.24-.39,9.11,1.41,17.26,5.72,23.49,11.95,7.13,7.13,11.74,16.78,12.38,27.5h-7.6c-.63-8.63-4.38-16.38-10.14-22.14-3.05-3.05-6.67-5.54-10.68-7.3l4.22,36.85,.19,1.67-1.05,1.32-14.1,17.74-3.18,4-3.18-4-14.1-17.74-1.03-1.34,.17-1.64,4.23-36.96c-4.1,1.76-7.8,4.29-10.92,7.41-5.76,5.76-9.51,13.51-10.14,22.14h-7.6c.64-10.72,5.25-20.37,12.38-27.5,6.28-6.28,14.53-10.61,23.73-11.99,.47-.07,.9,.07,1.24,.4,.34,.33,.49,.75,.44,1.22l-.68,5.9Z"/><path class="b" d="M205.64,495.8c-2.13-2.13-5.07-3.45-8.33-3.45s-6.2,1.32-8.33,3.45c-2.13,2.13-3.45,5.07-3.45,8.33s1.32,6.2,3.45,8.33c2.13,2.13,5.08,3.45,8.33,3.45s6.2-1.32,8.33-3.45c2.13-2.13,3.45-5.08,3.45-8.33s-1.32-6.2-3.45-8.33m-8.33-11.58c5.5,0,10.47,2.23,14.08,5.83,3.6,3.6,5.83,8.58,5.83,14.08s-2.23,10.47-5.83,14.08c-3.6,3.6-8.58,5.83-14.08,5.83s-10.47-2.23-14.08-5.83c-3.6-3.6-5.83-8.58-5.83-14.08s2.23-10.48,5.83-14.08c3.6-3.6,8.58-5.83,14.08-5.83Z"/><path class="b" d="M232.12,573.33c-.72,8.44-4.45,16.03-10.1,21.69-6.32,6.32-15.06,10.23-24.71,10.23s-18.39-3.91-24.71-10.23c-5.66-5.66-9.38-13.24-10.1-21.69h-7.6c.64,9.1,4.15,17.4,9.62,24.03l-13.84,13.84c-1.67-.09-3.36,.48-4.63,1.76l-7.78,7.78c-2.38,2.38-2.38,6.24,0,8.62,2.38,2.38,6.24,2.38,8.62,0l7.78-7.78c1.27-1.27,1.84-2.97,1.76-4.63l13.83-13.83c7.35,6.07,16.78,9.72,27.06,9.72,11.74,0,22.37-4.76,30.07-12.46,7.03-7.03,11.61-16.51,12.35-27.05h-7.6Z"/></g><g><path class="b" d="M644.07,700.84h0l-2.21,19.31v.04l-2.21,19.29,9.88,12.43,9.88-12.43-1.98-17.31h0l-1.58-13.78-.86-7.51h0l-.68-5.9c-.05-.47,.1-.9,.44-1.23,.34-.33,.78-.47,1.24-.39,9.11,1.41,17.26,5.72,23.49,11.95,7.13,7.13,11.74,16.78,12.38,27.5h-7.6c-.63-8.63-4.38-16.38-10.14-22.14-3.05-3.05-6.67-5.54-10.68-7.3l4.22,36.85,.19,1.67-1.05,1.32-14.1,17.74-3.18,4-3.18-4-14.1-17.74-1.03-1.34,.17-1.64,4.23-36.96c-4.1,1.76-7.8,4.29-10.92,7.41-5.76,5.76-9.51,13.51-10.14,22.14h-7.6c.64-10.72,5.25-20.37,12.38-27.5,6.28-6.28,14.53-10.61,23.73-11.99,.47-.07,.9,.07,1.24,.4,.34,.33,.49,.75,.44,1.22l-.68,5.9Z"/><path class="b" d="M657.74,660.87c-2.13-2.13-5.07-3.45-8.33-3.45s-6.2,1.32-8.33,3.45c-2.13,2.13-3.45,5.07-3.45,8.33s1.32,6.2,3.45,8.33c2.13,2.13,5.08,3.45,8.33,3.45s6.2-1.32,8.33-3.45c2.13-2.13,3.45-5.08,3.45-8.33s-1.32-6.2-3.45-8.33m-8.33-11.58c5.5,0,10.47,2.23,14.08,5.83,3.6,3.6,5.83,8.58,5.83,14.08s-2.23,10.47-5.83,14.08c-3.6,3.6-8.58,5.83-14.08,5.83s-10.47-2.23-14.08-5.83c-3.6-3.6-5.83-8.58-5.83-14.08s2.23-10.48,5.83-14.08c3.6-3.6,8.58-5.83,14.08-5.83Z"/><path class="b" d="M684.22,738.4c-.72,8.44-4.45,16.03-10.1,21.69-6.32,6.32-15.06,10.23-24.71,10.23s-18.39-3.91-24.71-10.23c-5.66-5.66-9.38-13.24-10.1-21.69h-7.6c.64,9.1,4.15,17.4,9.62,24.03l-13.84,13.84c-1.67-.09-3.36,.48-4.63,1.76l-7.78,7.78c-2.38,2.38-2.38,6.24,0,8.62,2.38,2.38,6.24,2.38,8.62,0l7.78-7.78c1.27-1.27,1.84-2.97,1.76-4.63l13.83-13.83c7.35,6.07,16.78,9.72,27.06,9.72,11.74,0,22.37-4.76,30.07-12.46,7.03-7.03,11.61-16.51,12.35-27.05h-7.6Z"/></g><g><path class="b" d="M945.26,700.84h0l-2.21,19.31v.04l-2.21,19.29,9.88,12.43,9.88-12.43-1.98-17.31h0l-1.58-13.78-.86-7.51h0l-.68-5.9c-.05-.47,.1-.9,.44-1.23,.34-.33,.78-.47,1.24-.39,9.11,1.41,17.26,5.72,23.49,11.95,7.13,7.13,11.74,16.78,12.38,27.5h-7.6c-.63-8.63-4.38-16.38-10.14-22.14-3.05-3.05-6.67-5.54-10.68-7.3l4.22,36.85,.19,1.67-1.05,1.32-14.1,17.74-3.18,4-3.18-4-14.1-17.74-1.03-1.34,.17-1.64,4.23-36.96c-4.1,1.76-7.8,4.29-10.92,7.41-5.76,5.76-9.51,13.51-10.14,22.14h-7.6c.64-10.72,5.25-20.37,12.38-27.5,6.28-6.28,14.53-10.61,23.73-11.99,.47-.07,.9,.07,1.24,.4,.34,.33,.49,.75,.44,1.22l-.68,5.9Z"/><path class="b" d="M958.93,660.87c-2.13-2.13-5.07-3.45-8.33-3.45s-6.2,1.32-8.33,3.45c-2.13,2.13-3.45,5.07-3.45,8.33s1.32,6.2,3.45,8.33c2.13,2.13,5.08,3.45,8.33,3.45s6.2-1.32,8.33-3.45c2.13-2.13,3.45-5.08,3.45-8.33s-1.32-6.2-3.45-8.33m-8.33-11.58c5.5,0,10.47,2.23,14.08,5.83,3.6,3.6,5.83,8.58,5.83,14.08s-2.23,10.47-5.83,14.08c-3.6,3.6-8.58,5.83-14.08,5.83s-10.47-2.23-14.08-5.83c-3.6-3.6-5.83-8.58-5.83-14.08s2.23-10.48,5.83-14.08c3.6-3.6,8.58-5.83,14.08-5.83Z"/><path class="b" d="M985.41,738.4c-.72,8.44-4.45,16.03-10.1,21.69-6.32,6.32-15.06,10.23-24.71,10.23s-18.39-3.91-24.71-10.23c-5.66-5.66-9.38-13.24-10.1-21.69h-7.6c.64,9.1,4.15,17.4,9.62,24.03l-13.84,13.84c-1.67-.09-3.36,.48-4.63,1.76l-7.78,7.78c-2.38,2.38-2.38,6.24,0,8.62,2.38,2.38,6.24,2.38,8.62,0l7.78-7.78c1.27-1.27,1.84-2.97,1.76-4.63l13.83-13.83c7.35,6.07,16.78,9.72,27.06,9.72,11.74,0,22.37-4.76,30.07-12.46,7.03-7.03,11.61-16.51,12.35-27.05h-7.6Z"/></g><g><path class="b" d="M332.58,694.47h0l-2.21,19.31v.04l-2.21,19.29,9.88,12.43,9.88-12.43-1.98-17.31h0l-1.58-13.78-.86-7.51h0l-.68-5.9c-.05-.47,.1-.9,.44-1.23,.34-.33,.78-.47,1.24-.39,9.11,1.41,17.26,5.72,23.49,11.95,7.13,7.13,11.74,16.78,12.38,27.5h-7.6c-.63-8.63-4.38-16.38-10.14-22.14-3.05-3.05-6.67-5.54-10.68-7.3l4.22,36.85,.19,1.67-1.05,1.32-14.1,17.74-3.18,4-3.18-4-14.1-17.74-1.03-1.34,.17-1.64,4.23-36.96c-4.1,1.76-7.8,4.29-10.92,7.41-5.76,5.76-9.51,13.51-10.14,22.14h-7.6c.64-10.72,5.25-20.37,12.38-27.5,6.28-6.28,14.53-10.61,23.73-11.99,.47-.07,.9,.07,1.24,.4,.34,.33,.49,.75,.44,1.22l-.68,5.9Z"/><path class="b" d="M346.25,654.5c-2.13-2.13-5.07-3.45-8.33-3.45s-6.2,1.32-8.33,3.45c-2.13,2.13-3.45,5.07-3.45,8.33s1.32,6.2,3.45,8.33c2.13,2.13,5.08,3.45,8.33,3.45s6.2-1.32,8.33-3.45c2.13-2.13,3.45-5.08,3.45-8.33s-1.32-6.2-3.45-8.33m-8.33-11.58c5.5,0,10.47,2.23,14.08,5.83,3.6,3.6,5.83,8.58,5.83,14.08s-2.23,10.47-5.83,14.08c-3.6,3.6-8.58,5.83-14.08,5.83s-10.47-2.23-14.08-5.83c-3.6-3.6-5.83-8.58-5.83-14.08s2.23-10.48,5.83-14.08c3.6-3.6,8.58-5.83,14.08-5.83Z"/><path class="b" d="M372.73,732.02c-.72,8.44-4.45,16.03-10.1,21.69-6.32,6.32-15.06,10.23-24.71,10.23s-18.39-3.91-24.71-10.23c-5.66-5.66-9.38-13.24-10.1-21.69h-7.6c.64,9.1,4.15,17.4,9.62,24.03l-13.84,13.84c-1.67-.09-3.36,.48-4.63,1.76l-7.78,7.78c-2.38,2.38-2.38,6.24,0,8.62,2.38,2.38,6.24,2.38,8.62,0l7.78-7.78c1.27-1.27,1.84-2.97,1.76-4.63l13.83-13.83c7.35,6.07,16.78,9.72,27.06,9.72,11.74,0,22.37-4.76,30.07-12.46,7.03-7.03,11.61-16.51,12.35-27.05h-7.6Z"/></g><g><path class="b" d="M66.21,720.45h0l-2.21,19.31v.04l-2.21,19.29,9.88,12.43,9.88-12.43-1.98-17.31h0l-1.58-13.78-.86-7.51h0l-.68-5.9c-.05-.47,.1-.9,.44-1.23,.34-.33,.78-.47,1.24-.39,9.11,1.41,17.26,5.72,23.49,11.95,7.13,7.13,11.74,16.78,12.38,27.5h-7.6c-.63-8.63-4.38-16.38-10.14-22.14-3.05-3.05-6.67-5.54-10.68-7.3l4.22,36.85,.19,1.67-1.05,1.32-14.1,17.74-3.18,4-3.18-4-14.1-17.74-1.03-1.34,.17-1.64,4.23-36.96c-4.1,1.76-7.8,4.29-10.92,7.41-5.76,5.76-9.51,13.51-10.14,22.14h-7.6c.64-10.72,5.25-20.37,12.38-27.5,6.28-6.28,14.53-10.61,23.73-11.99,.47-.07,.9,.07,1.24,.4,.34,.33,.49,.75,.44,1.22l-.68,5.9Z"/><path class="b" d="M79.88,680.49c-2.13-2.13-5.07-3.45-8.33-3.45s-6.2,1.32-8.33,3.45c-2.13,2.13-3.45,5.07-3.45,8.33s1.32,6.2,3.45,8.33c2.13,2.13,5.08,3.45,8.33,3.45s6.2-1.32,8.33-3.45c2.13-2.13,3.45-5.08,3.45-8.33s-1.32-6.2-3.45-8.33m-8.33-11.58c5.5,0,10.47,2.23,14.08,5.83,3.6,3.6,5.83,8.58,5.83,14.08s-2.23,10.47-5.83,14.08c-3.6,3.6-8.58,5.83-14.08,5.83s-10.47-2.23-14.08-5.83c-3.6-3.6-5.83-8.58-5.83-14.08s2.23-10.48,5.83-14.08c3.6-3.6,8.58-5.83,14.08-5.83Z"/><path class="b" d="M106.36,758.01c-.72,8.44-4.45,16.03-10.1,21.69-6.32,6.32-15.06,10.23-24.71,10.23s-18.39-3.91-24.71-10.23c-5.66-5.66-9.38-13.24-10.1-21.69h-7.6c.64,9.1,4.15,17.4,9.62,24.03l-13.84,13.84c-1.67-.09-3.36,.48-4.63,1.76l-7.78,7.78c-2.38,2.38-2.38,6.24,0,8.62,2.38,2.38,6.24,2.38,8.62,0l7.78-7.78c1.27-1.27,1.84-2.97,1.76-4.63l13.83-13.83c7.35,6.07,16.78,9.72,27.06,9.72,11.74,0,22.37-4.76,30.07-12.46,7.03-7.03,11.61-16.51,12.35-27.05h-7.6Z"/></g><g><path class="b" d="M809.83,873.75h0l-2.21,19.31v.04l-2.21,19.29,9.88,12.43,9.88-12.43-1.98-17.31h0l-1.58-13.78-.86-7.51h0l-.68-5.9c-.05-.47,.1-.9,.44-1.23,.34-.33,.78-.47,1.24-.39,9.11,1.41,17.26,5.72,23.49,11.95,7.13,7.13,11.74,16.78,12.38,27.5h-7.6c-.63-8.63-4.38-16.38-10.14-22.14-3.05-3.05-6.67-5.54-10.68-7.3l4.22,36.85,.19,1.67-1.05,1.32-14.1,17.74-3.18,4-3.18-4-14.1-17.74-1.03-1.34,.17-1.64,4.23-36.96c-4.1,1.76-7.8,4.29-10.92,7.41-5.76,5.76-9.51,13.51-10.14,22.14h-7.6c.64-10.72,5.25-20.37,12.38-27.5,6.28-6.28,14.53-10.61,23.73-11.99,.47-.07,.9,.07,1.24,.4,.34,.33,.49,.75,.44,1.22l-.68,5.9Z"/><path class="b" d="M823.49,833.78c-2.13-2.13-5.07-3.45-8.33-3.45s-6.2,1.32-8.33,3.45c-2.13,2.13-3.45,5.07-3.45,8.33s1.32,6.2,3.45,8.33c2.13,2.13,5.08,3.45,8.33,3.45s6.2-1.32,8.33-3.45c2.13-2.13,3.45-5.08,3.45-8.33s-1.32-6.2-3.45-8.33m-8.33-11.58c5.5,0,10.47,2.23,14.08,5.83,3.6,3.6,5.83,8.58,5.83,14.08s-2.23,10.47-5.83,14.08c-3.6,3.6-8.58,5.83-14.08,5.83s-10.47-2.23-14.08-5.83c-3.6-3.6-5.83-8.58-5.83-14.08s2.23-10.48,5.83-14.08c3.6-3.6,8.58-5.83,14.08-5.83Z"/><path class="b" d="M849.98,911.31c-.72,8.44-4.45,16.03-10.1,21.69-6.32,6.32-15.06,10.23-24.71,10.23s-18.39-3.91-24.71-10.23c-5.66-5.66-9.38-13.24-10.1-21.69h-7.6c.64,9.1,4.15,17.4,9.62,24.03l-13.84,13.84c-1.67-.09-3.36,.48-4.63,1.76l-7.78,7.78c-2.38,2.38-2.38,6.24,0,8.62,2.38,2.38,6.24,2.38,8.62,0l7.78-7.78c1.27-1.27,1.84-2.97,1.76-4.63l13.83-13.83c7.35,6.07,16.78,9.72,27.06,9.72,11.74,0,22.37-4.76,30.07-12.46,7.03-7.03,11.61-16.51,12.35-27.05h-7.6Z"/></g><g><path class="b" d="M352.49,1032.82h0l-2.21,19.31v.04l-2.21,19.29,9.88,12.43,9.88-12.43-1.98-17.31h0l-1.58-13.78-.86-7.51h0l-.68-5.9c-.05-.47,.1-.9,.44-1.23,.34-.33,.78-.47,1.24-.39,9.11,1.41,17.26,5.72,23.49,11.95,7.13,7.13,11.74,16.78,12.38,27.5h-7.6c-.63-8.63-4.38-16.38-10.14-22.14-3.05-3.05-6.67-5.54-10.68-7.3l4.22,36.85,.19,1.67-1.05,1.32-14.1,17.74-3.18,4-3.18-4-14.1-17.74-1.03-1.34,.17-1.64,4.23-36.96c-4.1,1.76-7.8,4.29-10.92,7.41-5.76,5.76-9.51,13.51-10.14,22.14h-7.6c.64-10.72,5.25-20.37,12.38-27.5,6.28-6.28,14.53-10.61,23.73-11.99,.47-.07,.9,.07,1.24,.4,.34,.33,.49,.75,.44,1.22l-.68,5.9Z"/><path class="b" d="M366.16,992.86c-2.13-2.13-5.07-3.45-8.33-3.45s-6.2,1.32-8.33,3.45c-2.13,2.13-3.45,5.07-3.45,8.33s1.32,6.2,3.45,8.33c2.13,2.13,5.08,3.45,8.33,3.45s6.2-1.32,8.33-3.45c2.13-2.13,3.45-5.08,3.45-8.33s-1.32-6.2-3.45-8.33m-8.33-11.58c5.5,0,10.47,2.23,14.08,5.83,3.6,3.6,5.83,8.58,5.83,14.08s-2.23,10.47-5.83,14.08c-3.6,3.6-8.58,5.83-14.08,5.83s-10.47-2.23-14.08-5.83c-3.6-3.6-5.83-8.58-5.83-14.08s2.23-10.48,5.83-14.08c3.6-3.6,8.58-5.83,14.08-5.83Z"/><path class="b" d="M392.64,1070.38c-.72,8.44-4.45,16.03-10.1,21.69-6.32,6.32-15.06,10.23-24.71,10.23s-18.39-3.91-24.71-10.23c-5.66-5.66-9.38-13.24-10.1-21.69h-7.6c.64,9.1,4.15,17.4,9.62,24.03l-13.84,13.84c-1.67-.09-3.36,.48-4.63,1.76l-7.78,7.78c-2.38,2.38-2.38,6.24,0,8.62,2.38,2.38,6.24,2.38,8.62,0l7.78-7.78c1.27-1.27,1.84-2.97,1.76-4.63l13.83-13.83c7.35,6.07,16.78,9.72,27.06,9.72,11.74,0,22.37-4.76,30.07-12.46,7.03-7.03,11.61-16.51,12.35-27.05h-7.6Z"/></g><g><path class="b" d="M485.7,873.75h0l-2.21,19.31v.04l-2.21,19.29,9.88,12.43,9.88-12.43-1.98-17.31h0l-1.58-13.78-.86-7.51h0l-.68-5.9c-.05-.47,.1-.9,.44-1.23,.34-.33,.78-.47,1.24-.39,9.11,1.41,17.26,5.72,23.49,11.95,7.13,7.13,11.74,16.78,12.38,27.5h-7.6c-.63-8.63-4.38-16.38-10.14-22.14-3.05-3.05-6.67-5.54-10.68-7.3l4.22,36.85,.19,1.67-1.05,1.32-14.1,17.74-3.18,4-3.18-4-14.1-17.74-1.03-1.34,.17-1.64,4.23-36.96c-4.1,1.76-7.8,4.29-10.92,7.41-5.76,5.76-9.51,13.51-10.14,22.14h-7.6c.64-10.72,5.25-20.37,12.38-27.5,6.28-6.28,14.53-10.61,23.73-11.99,.47-.07,.9,.07,1.24,.4,.34,.33,.49,.75,.44,1.22l-.68,5.9Z"/><path class="b" d="M499.37,833.78c-2.13-2.13-5.07-3.45-8.33-3.45s-6.2,1.32-8.33,3.45c-2.13,2.13-3.45,5.07-3.45,8.33s1.32,6.2,3.45,8.33c2.13,2.13,5.08,3.45,8.33,3.45s6.2-1.32,8.33-3.45c2.13-2.13,3.45-5.08,3.45-8.33s-1.32-6.2-3.45-8.33m-8.33-11.58c5.5,0,10.47,2.23,14.08,5.83,3.6,3.6,5.83,8.58,5.83,14.08s-2.23,10.47-5.83,14.08c-3.6,3.6-8.58,5.83-14.08,5.83s-10.47-2.23-14.08-5.83c-3.6-3.6-5.83-8.58-5.83-14.08s2.23-10.48,5.83-14.08c3.6-3.6,8.58-5.83,14.08-5.83Z"/><path class="b" d="M525.85,911.31c-.72,8.44-4.45,16.03-10.1,21.69-6.32,6.32-15.06,10.23-24.71,10.23s-18.39-3.91-24.71-10.23c-5.66-5.66-9.38-13.24-10.1-21.69h-7.6c.64,9.1,4.15,17.4,9.62,24.03l-13.84,13.84c-1.67-.09-3.36,.48-4.63,1.76l-7.78,7.78c-2.38,2.38-2.38,6.24,0,8.62,2.38,2.38,6.24,2.38,8.62,0l7.78-7.78c1.27-1.27,1.84-2.97,1.76-4.63l13.83-13.83c7.35,6.07,16.78,9.72,27.06,9.72,11.74,0,22.37-4.76,30.07-12.46,7.03-7.03,11.61-16.51,12.35-27.05h-7.6Z"/></g><g><path class="b" d="M191.97,867.38h0l-2.21,19.31v.04l-2.21,19.29,9.88,12.43,9.88-12.43-1.98-17.31h0l-1.58-13.78-.86-7.51h0l-.68-5.9c-.05-.47,.1-.9,.44-1.23,.34-.33,.78-.47,1.24-.39,9.11,1.41,17.26,5.72,23.49,11.95,7.13,7.13,11.74,16.78,12.38,27.5h-7.6c-.63-8.63-4.38-16.38-10.14-22.14-3.05-3.05-6.67-5.54-10.68-7.3l4.22,36.85,.19,1.67-1.05,1.32-14.1,17.74-3.18,4-3.18-4-14.1-17.74-1.03-1.34,.17-1.64,4.23-36.96c-4.1,1.76-7.8,4.29-10.92,7.41-5.76,5.76-9.51,13.51-10.14,22.14h-7.6c.64-10.72,5.25-20.37,12.38-27.5,6.28-6.28,14.53-10.61,23.73-11.99,.47-.07,.9,.07,1.24,.4,.34,.33,.49,.75,.44,1.22l-.68,5.9Z"/><path class="b" d="M205.64,827.41c-2.13-2.13-5.07-3.45-8.33-3.45s-6.2,1.32-8.33,3.45c-2.13,2.13-3.45,5.07-3.45,8.33s1.32,6.2,3.45,8.33c2.13,2.13,5.08,3.45,8.33,3.45s6.2-1.32,8.33-3.45c2.13-2.13,3.45-5.08,3.45-8.33s-1.32-6.2-3.45-8.33m-8.33-11.58c5.5,0,10.47,2.23,14.08,5.83,3.6,3.6,5.83,8.58,5.83,14.08s-2.23,10.47-5.83,14.08c-3.6,3.6-8.58,5.83-14.08,5.83s-10.47-2.23-14.08-5.83c-3.6-3.6-5.83-8.58-5.83-14.08s2.23-10.48,5.83-14.08c3.6-3.6,8.58-5.83,14.08-5.83Z"/><path class="b" d="M232.12,904.93c-.72,8.44-4.45,16.03-10.1,21.69-6.32,6.32-15.06,10.23-24.71,10.23s-18.39-3.91-24.71-10.23c-5.66-5.66-9.38-13.24-10.1-21.69h-7.6c.64,9.1,4.15,17.4,9.62,24.03l-13.84,13.84c-1.67-.09-3.36,.48-4.63,1.76l-7.78,7.78c-2.38,2.38-2.38,6.24,0,8.62,2.38,2.38,6.24,2.38,8.62,0l7.78-7.78c1.27-1.27,1.84-2.97,1.76-4.63l13.83-13.83c7.35,6.07,16.78,9.72,27.06,9.72,11.74,0,22.37-4.76,30.07-12.46,7.03-7.03,11.61-16.51,12.35-27.05h-7.6Z"/></g><g><path class="b" d="M651.42,1042.24h0l-2.21,19.31v.04l-2.21,19.29,9.88,12.43,9.88-12.43-1.98-17.31h0l-1.58-13.78-.86-7.51h0l-.68-5.9c-.05-.47,.1-.9,.44-1.23,.34-.33,.78-.47,1.24-.39,9.11,1.41,17.26,5.72,23.49,11.95,7.13,7.13,11.74,16.78,12.38,27.5h-7.6c-.63-8.63-4.38-16.38-10.14-22.14-3.05-3.05-6.67-5.54-10.68-7.3l4.22,36.85,.19,1.67-1.05,1.32-14.1,17.74-3.18,4-3.18-4-14.1-17.74-1.03-1.34,.17-1.64,4.23-36.96c-4.1,1.76-7.8,4.29-10.92,7.41-5.76,5.76-9.51,13.51-10.14,22.14h-7.6c.64-10.72,5.25-20.37,12.38-27.5,6.28-6.28,14.53-10.61,23.73-11.99,.47-.07,.9,.07,1.24,.4,.34,.33,.49,.75,.44,1.22l-.68,5.9Z"/><path class="b" d="M665.08,1002.27c-2.13-2.13-5.07-3.45-8.33-3.45s-6.2,1.32-8.33,3.45c-2.13,2.13-3.45,5.07-3.45,8.33s1.32,6.2,3.45,8.33c2.13,2.13,5.08,3.45,8.33,3.45s6.2-1.32,8.33-3.45c2.13-2.13,3.45-5.08,3.45-8.33s-1.32-6.2-3.45-8.33m-8.33-11.58c5.5,0,10.47,2.23,14.08,5.83,3.6,3.6,5.83,8.58,5.83,14.08s-2.23,10.47-5.83,14.08c-3.6,3.6-8.58,5.83-14.08,5.83s-10.47-2.23-14.08-5.83c-3.6-3.6-5.83-8.58-5.83-14.08s2.23-10.48,5.83-14.08c3.6-3.6,8.58-5.83,14.08-5.83Z"/><path class="b" d="M691.56,1079.8c-.72,8.44-4.45,16.03-10.1,21.69-6.32,6.32-15.06,10.23-24.71,10.23s-18.39-3.91-24.71-10.23c-5.66-5.66-9.38-13.24-10.1-21.69h-7.6c.64,9.1,4.15,17.4,9.62,24.03l-13.84,13.84c-1.67-.09-3.36,.48-4.63,1.76l-7.78,7.78c-2.38,2.38-2.38,6.24,0,8.62,2.38,2.38,6.24,2.38,8.62,0l7.78-7.78c1.27-1.27,1.84-2.97,1.76-4.63l13.83-13.83c7.35,6.07,16.78,9.72,27.06,9.72,11.74,0,22.37-4.76,30.07-12.46,7.03-7.03,11.61-16.51,12.35-27.05h-7.6Z"/></g><g><path class="b" d="M968.81,1051.51h0l-2.21,19.31v.04l-2.21,19.29,9.88,12.43,9.88-12.43-1.98-17.31h0l-1.58-13.78-.86-7.51h0l-.68-5.9c-.05-.47,.1-.9,.44-1.23,.34-.33,.78-.47,1.24-.39,9.11,1.41,17.26,5.72,23.49,11.95,7.13,7.13,11.74,16.78,12.38,27.5h-7.6c-.63-8.63-4.38-16.38-10.14-22.14-3.05-3.05-6.67-5.54-10.68-7.3l4.22,36.85,.19,1.67-1.05,1.32-14.1,17.74-3.18,4-3.18-4-14.1-17.74-1.03-1.34,.17-1.64,4.23-36.96c-4.1,1.76-7.8,4.29-10.92,7.41-5.76,5.76-9.51,13.51-10.14,22.14h-7.6c.64-10.72,5.25-20.37,12.38-27.5,6.28-6.28,14.53-10.61,23.73-11.99,.47-.07,.9,.07,1.24,.4,.34,.33,.49,.75,.44,1.22l-.68,5.9Z"/><path class="b" d="M982.48,1011.55c-2.13-2.13-5.07-3.45-8.33-3.45s-6.2,1.32-8.33,3.45c-2.13,2.13-3.45,5.07-3.45,8.33s1.32,6.2,3.45,8.33c2.13,2.13,5.08,3.45,8.33,3.45s6.2-1.32,8.33-3.45c2.13-2.13,3.45-5.08,3.45-8.33s-1.32-6.2-3.45-8.33m-8.33-11.58c5.5,0,10.47,2.23,14.08,5.83,3.6,3.6,5.83,8.58,5.83,14.08s-2.23,10.47-5.83,14.08c-3.6,3.6-8.58,5.83-14.08,5.83s-10.47-2.23-14.08-5.83c-3.6-3.6-5.83-8.58-5.83-14.08s2.23-10.48,5.83-14.08c3.6-3.6,8.58-5.83,14.08-5.83Z"/><path class="b" d="M1008.96,1089.07c-.72,8.44-4.45,16.03-10.1,21.69-6.32,6.32-15.06,10.23-24.71,10.23s-18.39-3.91-24.71-10.23c-5.66-5.66-9.38-13.24-10.1-21.69h-7.6c.64,9.1,4.15,17.4,9.62,24.03l-13.84,13.84c-1.67-.09-3.36,.48-4.63,1.76l-7.78,7.78c-2.38,2.38-2.38,6.24,0,8.62,2.38,2.38,6.24,2.38,8.62,0l7.78-7.78c1.27-1.27,1.84-2.97,1.76-4.63l13.83-13.83c7.35,6.07,16.78,9.72,27.06,9.72,11.74,0,22.37-4.76,30.07-12.46,7.03-7.03,11.61-16.51,12.35-27.05h-7.6Z"/></g><g><path class="b" d="M1107.15,867h0l-2.21,19.31v.04l-2.21,19.29,9.88,12.43,9.88-12.43-1.98-17.31h0l-1.58-13.78-.86-7.51h0l-.68-5.9c-.05-.47,.1-.9,.44-1.23,.34-.33,.78-.47,1.24-.39,9.11,1.41,17.26,5.72,23.49,11.95,7.13,7.13,11.74,16.78,12.38,27.5h-7.6c-.63-8.63-4.38-16.38-10.14-22.14-3.05-3.05-6.67-5.54-10.68-7.3l4.22,36.85,.19,1.67-1.05,1.32-14.1,17.74-3.18,4-3.18-4-14.1-17.74-1.03-1.34,.17-1.64,4.23-36.96c-4.1,1.76-7.8,4.29-10.92,7.41-5.76,5.76-9.51,13.51-10.14,22.14h-7.6c.64-10.72,5.25-20.37,12.38-27.5,6.28-6.28,14.53-10.61,23.73-11.99,.47-.07,.9,.07,1.24,.4,.34,.33,.49,.75,.44,1.22l-.68,5.9Z"/><path class="b" d="M1120.82,827.03c-2.13-2.13-5.07-3.45-8.33-3.45s-6.2,1.32-8.33,3.45c-2.13,2.13-3.45,5.07-3.45,8.33s1.32,6.2,3.45,8.33c2.13,2.13,5.08,3.45,8.33,3.45s6.2-1.32,8.33-3.45c2.13-2.13,3.45-5.08,3.45-8.33s-1.32-6.2-3.45-8.33m-8.33-11.58c5.5,0,10.47,2.23,14.08,5.83,3.6,3.6,5.83,8.58,5.83,14.08s-2.23,10.47-5.83,14.08c-3.6,3.6-8.58,5.83-14.08,5.83s-10.47-2.23-14.08-5.83c-3.6-3.6-5.83-8.58-5.83-14.08s2.23-10.48,5.83-14.08c3.6-3.6,8.58-5.83,14.08-5.83Z"/><path class="b" d="M1147.3,904.56c-.72,8.44-4.45,16.03-10.1,21.69-6.32,6.32-15.06,10.23-24.71,10.23s-18.39-3.91-24.71-10.23c-5.66-5.66-9.38-13.24-10.1-21.69h-7.6c.64,9.1,4.15,17.4,9.62,24.03l-13.84,13.84c-1.67-.09-3.36,.48-4.63,1.76l-7.78,7.78c-2.38,2.38-2.38,6.24,0,8.62,2.38,2.38,6.24,2.38,8.62,0l7.78-7.78c1.27-1.27,1.84-2.97,1.76-4.63l13.83-13.83c7.35,6.07,16.78,9.72,27.06,9.72,11.74,0,22.37-4.76,30.07-12.46,7.03-7.03,11.61-16.51,12.35-27.05h-7.6Z"/></g><g><path class="b" d="M481.6,380.38h0l-1.34,11.71v.02l-1.34,11.7,5.99,7.54,5.99-7.54-1.2-10.5h0l-.96-8.36-.52-4.55h0l-.41-3.58c-.03-.29,.06-.55,.27-.74,.21-.2,.47-.28,.75-.24,5.52,.86,10.47,3.47,14.24,7.25,4.32,4.32,7.12,10.18,7.51,16.68h-4.61c-.38-5.23-2.66-9.94-6.15-13.43-1.85-1.85-4.04-3.36-6.48-4.43l2.56,22.35,.12,1.01-.64,.8-8.55,10.76-1.93,2.42-1.93-2.42-8.55-10.76-.62-.81,.1-1,2.56-22.41c-2.49,1.07-4.73,2.6-6.62,4.49-3.49,3.49-5.77,8.2-6.15,13.43h-4.61c.39-6.5,3.18-12.35,7.51-16.68,3.81-3.81,8.81-6.43,14.39-7.27,.28-.04,.55,.04,.75,.24,.21,.2,.3,.46,.27,.74l-.41,3.58Z"/><path class="b" d="M489.89,356.14c-1.29-1.29-3.08-2.09-5.05-2.09s-3.76,.8-5.05,2.09c-1.29,1.29-2.09,3.08-2.09,5.05s.8,3.76,2.09,5.05c1.29,1.29,3.08,2.09,5.05,2.09s3.76-.8,5.05-2.09c1.29-1.29,2.09-3.08,2.09-5.05s-.8-3.76-2.09-5.05m-5.05-7.02c3.33,0,6.35,1.35,8.54,3.54,2.18,2.18,3.54,5.2,3.54,8.54s-1.35,6.35-3.54,8.54c-2.18,2.18-5.2,3.54-8.54,3.54s-6.35-1.35-8.54-3.54c-2.19-2.18-3.54-5.2-3.54-8.54s1.35-6.35,3.54-8.54c2.18-2.18,5.2-3.54,8.54-3.54Z"/><path class="b" d="M505.95,403.16c-.44,5.12-2.7,9.72-6.13,13.15-3.83,3.83-9.13,6.21-14.98,6.21s-11.15-2.37-14.99-6.21c-3.43-3.43-5.69-8.03-6.13-13.15h-4.61c.39,5.52,2.51,10.56,5.83,14.57l-8.39,8.39c-1.01-.05-2.04,.29-2.81,1.06l-4.72,4.72c-1.44,1.44-1.44,3.79,0,5.23,1.44,1.44,3.79,1.44,5.23,0l4.72-4.72c.77-.77,1.12-1.8,1.06-2.81l8.39-8.39c4.46,3.68,10.18,5.89,16.41,5.89,7.12,0,13.57-2.89,18.24-7.55,4.26-4.26,7.04-10.01,7.49-16.4h-4.61Z"/></g><g><path class="b" d="M639.18,211.91h0l-1.34,11.71v.02l-1.34,11.7,5.99,7.54,5.99-7.54-1.2-10.5h0l-.96-8.36-.52-4.55h0l-.41-3.58c-.03-.29,.06-.55,.27-.74,.21-.2,.47-.28,.75-.24,5.52,.86,10.47,3.47,14.24,7.25,4.32,4.32,7.12,10.18,7.51,16.68h-4.61c-.38-5.23-2.66-9.94-6.15-13.43-1.85-1.85-4.04-3.36-6.48-4.43l2.56,22.35,.12,1.01-.64,.8-8.55,10.76-1.93,2.42-1.93-2.42-8.55-10.76-.62-.81,.1-1,2.56-22.41c-2.49,1.07-4.73,2.6-6.62,4.49-3.49,3.49-5.77,8.2-6.15,13.43h-4.61c.39-6.5,3.18-12.35,7.51-16.68,3.81-3.81,8.81-6.43,14.39-7.27,.28-.04,.55,.04,.75,.24,.21,.2,.3,.46,.27,.74l-.41,3.58Z"/><path class="b" d="M647.47,187.67c-1.29-1.29-3.08-2.09-5.05-2.09s-3.76,.8-5.05,2.09c-1.29,1.29-2.09,3.08-2.09,5.05s.8,3.76,2.09,5.05c1.29,1.29,3.08,2.09,5.05,2.09s3.76-.8,5.05-2.09c1.29-1.29,2.09-3.08,2.09-5.05s-.8-3.76-2.09-5.05m-5.05-7.02c3.33,0,6.35,1.35,8.54,3.54,2.18,2.18,3.54,5.2,3.54,8.54s-1.35,6.35-3.54,8.54c-2.18,2.18-5.2,3.54-8.54,3.54s-6.35-1.35-8.54-3.54c-2.19-2.18-3.54-5.2-3.54-8.54s1.35-6.35,3.54-8.54c2.18-2.18,5.2-3.54,8.54-3.54Z"/><path class="b" d="M663.53,234.69c-.44,5.12-2.7,9.72-6.13,13.15-3.83,3.83-9.13,6.21-14.98,6.21s-11.15-2.37-14.99-6.21c-3.43-3.43-5.69-8.03-6.13-13.15h-4.61c.39,5.52,2.51,10.56,5.83,14.57l-8.39,8.39c-1.01-.05-2.04,.29-2.81,1.06l-4.72,4.72c-1.44,1.44-1.44,3.79,0,5.23,1.44,1.44,3.79,1.44,5.23,0l4.72-4.72c.77-.77,1.12-1.8,1.06-2.81l8.39-8.39c4.46,3.68,10.18,5.89,16.41,5.89,7.12,0,13.57-2.89,18.24-7.55,4.26-4.26,7.04-10.01,7.49-16.4h-4.61Z"/></g><g><path class="b" d="M787.32,389.87h0l-1.34,11.71v.02l-1.34,11.7,5.99,7.54,5.99-7.54-1.2-10.5h0l-.96-8.36-.52-4.55h0l-.41-3.58c-.03-.29,.06-.55,.27-.74,.21-.2,.47-.28,.75-.24,5.52,.86,10.47,3.47,14.24,7.25,4.32,4.32,7.12,10.18,7.51,16.68h-4.61c-.38-5.23-2.66-9.94-6.15-13.43-1.85-1.85-4.04-3.36-6.48-4.43l2.56,22.35,.12,1.01-.64,.8-8.55,10.76-1.93,2.42-1.93-2.42-8.55-10.76-.62-.81,.1-1,2.56-22.41c-2.49,1.07-4.73,2.6-6.62,4.49-3.49,3.49-5.77,8.2-6.15,13.43h-4.61c.39-6.5,3.18-12.35,7.51-16.68,3.81-3.81,8.81-6.43,14.39-7.27,.28-.04,.55,.04,.75,.24,.21,.2,.3,.46,.27,.74l-.41,3.58Z"/><path class="b" d="M795.61,365.63c-1.29-1.29-3.08-2.09-5.05-2.09s-3.76,.8-5.05,2.09c-1.29,1.29-2.09,3.08-2.09,5.05s.8,3.76,2.09,5.05c1.29,1.29,3.08,2.09,5.05,2.09s3.76-.8,5.05-2.09c1.29-1.29,2.09-3.08,2.09-5.05s-.8-3.76-2.09-5.05m-5.05-7.02c3.33,0,6.35,1.35,8.54,3.54,2.18,2.18,3.54,5.2,3.54,8.54s-1.35,6.35-3.54,8.54c-2.18,2.18-5.2,3.54-8.54,3.54s-6.35-1.35-8.54-3.54c-2.19-2.18-3.54-5.2-3.54-8.54s1.35-6.35,3.54-8.54c2.18-2.18,5.2-3.54,8.54-3.54Z"/><path class="b" d="M811.67,412.64c-.44,5.12-2.7,9.72-6.13,13.15-3.83,3.83-9.13,6.21-14.98,6.21s-11.15-2.37-14.99-6.21c-3.43-3.43-5.69-8.03-6.13-13.15h-4.61c.39,5.52,2.51,10.56,5.83,14.57l-8.39,8.39c-1.01-.05-2.04,.29-2.81,1.06l-4.72,4.72c-1.44,1.44-1.44,3.79,0,5.23,1.44,1.44,3.79,1.44,5.23,0l4.72-4.72c.77-.77,1.12-1.8,1.06-2.81l8.39-8.39c4.46,3.68,10.18,5.89,16.41,5.89,7.12,0,13.57-2.89,18.24-7.55,4.26-4.26,7.04-10.01,7.49-16.4h-4.61Z"/></g><g><path class="b" d="M644.76,526.72h0l-1.34,11.71v.02l-1.34,11.7,5.99,7.54,5.99-7.54-1.2-10.5h0l-.96-8.36-.52-4.55h0l-.41-3.58c-.03-.29,.06-.55,.27-.74,.21-.2,.47-.28,.75-.24,5.52,.86,10.47,3.47,14.24,7.25,4.32,4.32,7.12,10.18,7.51,16.68h-4.61c-.38-5.23-2.66-9.94-6.15-13.43-1.85-1.85-4.04-3.36-6.48-4.43l2.56,22.35,.12,1.01-.64,.8-8.55,10.76-1.93,2.42-1.93-2.42-8.55-10.76-.62-.81,.1-1,2.56-22.41c-2.49,1.07-4.73,2.6-6.62,4.49-3.49,3.49-5.77,8.2-6.15,13.43h-4.61c.39-6.5,3.18-12.35,7.51-16.68,3.81-3.81,8.81-6.43,14.39-7.27,.28-.04,.55,.04,.75,.24,.21,.2,.3,.46,.27,.74l-.41,3.58Z"/><path class="b" d="M653.05,502.48c-1.29-1.29-3.08-2.09-5.05-2.09s-3.76,.8-5.05,2.09c-1.29,1.29-2.09,3.08-2.09,5.05s.8,3.76,2.09,5.05c1.29,1.29,3.08,2.09,5.05,2.09s3.76-.8,5.05-2.09c1.29-1.29,2.09-3.08,2.09-5.05s-.8-3.76-2.09-5.05m-5.05-7.02c3.33,0,6.35,1.35,8.54,3.54,2.18,2.18,3.54,5.2,3.54,8.54s-1.35,6.35-3.54,8.54c-2.18,2.18-5.2,3.54-8.54,3.54s-6.35-1.35-8.54-3.54c-2.19-2.18-3.54-5.2-3.54-8.54s1.35-6.35,3.54-8.54c2.18-2.18,5.2-3.54,8.54-3.54Z"/><path class="b" d="M669.11,549.5c-.44,5.12-2.7,9.72-6.13,13.15-3.83,3.83-9.13,6.21-14.98,6.21s-11.15-2.37-14.99-6.21c-3.43-3.43-5.69-8.03-6.13-13.15h-4.61c.39,5.52,2.51,10.56,5.83,14.57l-8.39,8.39c-1.01-.05-2.04,.29-2.81,1.06l-4.72,4.72c-1.44,1.44-1.44,3.79,0,5.23,1.44,1.44,3.79,1.44,5.23,0l4.72-4.72c.77-.77,1.12-1.8,1.06-2.81l8.39-8.39c4.46,3.68,10.18,5.89,16.41,5.89,7.12,0,13.57-2.89,18.24-7.55,4.26-4.26,7.04-10.01,7.49-16.4h-4.61Z"/></g><g><path class="b" d="M493.38,714.8h0l-1.34,11.71v.02l-1.34,11.7,5.99,7.54,5.99-7.54-1.2-10.5h0l-.96-8.36-.52-4.55h0l-.41-3.58c-.03-.29,.06-.55,.27-.74,.21-.2,.47-.28,.75-.24,5.52,.86,10.47,3.47,14.24,7.25,4.32,4.32,7.12,10.18,7.51,16.68h-4.61c-.38-5.23-2.66-9.94-6.15-13.43-1.85-1.85-4.04-3.36-6.48-4.43l2.56,22.35,.12,1.01-.64,.8-8.55,10.76-1.93,2.42-1.93-2.42-8.55-10.76-.62-.81,.1-1,2.56-22.41c-2.49,1.07-4.73,2.6-6.62,4.49-3.49,3.49-5.77,8.2-6.15,13.43h-4.61c.39-6.5,3.18-12.35,7.51-16.68,3.81-3.81,8.81-6.43,14.39-7.27,.28-.04,.55,.04,.75,.24,.21,.2,.3,.46,.27,.74l-.41,3.58Z"/><path class="b" d="M501.67,690.56c-1.29-1.29-3.08-2.09-5.05-2.09s-3.76,.8-5.05,2.09c-1.29,1.29-2.09,3.08-2.09,5.05s.8,3.76,2.09,5.05c1.29,1.29,3.08,2.09,5.05,2.09s3.76-.8,5.05-2.09c1.29-1.29,2.09-3.08,2.09-5.05s-.8-3.76-2.09-5.05m-5.05-7.02c3.33,0,6.35,1.35,8.54,3.54,2.18,2.18,3.54,5.2,3.54,8.54s-1.35,6.35-3.54,8.54c-2.18,2.18-5.2,3.54-8.54,3.54s-6.35-1.35-8.54-3.54c-2.19-2.18-3.54-5.2-3.54-8.54s1.35-6.35,3.54-8.54c2.18-2.18,5.2-3.54,8.54-3.54Z"/><path class="b" d="M517.73,737.57c-.44,5.12-2.7,9.72-6.13,13.15-3.83,3.83-9.13,6.21-14.98,6.21s-11.15-2.37-14.99-6.21c-3.43-3.43-5.69-8.03-6.13-13.15h-4.61c.39,5.52,2.51,10.56,5.83,14.57l-8.39,8.39c-1.01-.05-2.04,.29-2.81,1.06l-4.72,4.72c-1.44,1.44-1.44,3.79,0,5.23,1.44,1.44,3.79,1.44,5.23,0l4.72-4.72c.77-.77,1.12-1.8,1.06-2.81l8.39-8.39c4.46,3.68,10.18,5.89,16.41,5.89,7.12,0,13.57-2.89,18.24-7.55,4.26-4.26,7.04-10.01,7.49-16.4h-4.61Z"/></g><g><path class="b" d="M348.39,522.53h0l-1.34,11.71v.02l-1.34,11.7,5.99,7.54,5.99-7.54-1.2-10.5h0l-.96-8.36-.52-4.55h0l-.41-3.58c-.03-.29,.06-.55,.27-.74,.21-.2,.47-.28,.75-.24,5.52,.86,10.47,3.47,14.24,7.25,4.32,4.32,7.12,10.18,7.51,16.68h-4.61c-.38-5.23-2.66-9.94-6.15-13.43-1.85-1.85-4.04-3.36-6.48-4.43l2.56,22.35,.12,1.01-.64,.8-8.55,10.76-1.93,2.42-1.93-2.42-8.55-10.76-.62-.81,.1-1,2.56-22.41c-2.49,1.07-4.73,2.6-6.62,4.49-3.49,3.49-5.77,8.2-6.15,13.43h-4.61c.39-6.5,3.18-12.35,7.51-16.68,3.81-3.81,8.81-6.43,14.39-7.27,.28-.04,.55,.04,.75,.24,.21,.2,.3,.46,.27,.74l-.41,3.58Z"/><path class="b" d="M356.68,498.29c-1.29-1.29-3.08-2.09-5.05-2.09s-3.76,.8-5.05,2.09c-1.29,1.29-2.09,3.08-2.09,5.05s.8,3.76,2.09,5.05c1.29,1.29,3.08,2.09,5.05,2.09s3.76-.8,5.05-2.09c1.29-1.29,2.09-3.08,2.09-5.05s-.8-3.76-2.09-5.05m-5.05-7.02c3.33,0,6.35,1.35,8.54,3.54,2.18,2.18,3.54,5.2,3.54,8.54s-1.35,6.35-3.54,8.54c-2.18,2.18-5.2,3.54-8.54,3.54s-6.35-1.35-8.54-3.54c-2.19-2.18-3.54-5.2-3.54-8.54s1.35-6.35,3.54-8.54c2.18-2.18,5.2-3.54,8.54-3.54Z"/><path class="b" d="M372.74,545.3c-.44,5.12-2.7,9.72-6.13,13.15-3.83,3.83-9.13,6.21-14.98,6.21s-11.15-2.37-14.99-6.21c-3.43-3.43-5.69-8.03-6.13-13.15h-4.61c.39,5.52,2.51,10.56,5.83,14.57l-8.39,8.39c-1.01-.05-2.04,.29-2.81,1.06l-4.72,4.72c-1.44,1.44-1.44,3.79,0,5.23,1.44,1.44,3.79,1.44,5.23,0l4.72-4.72c.77-.77,1.12-1.8,1.06-2.81l8.39-8.39c4.46,3.68,10.18,5.89,16.41,5.89,7.12,0,13.57-2.89,18.24-7.55,4.26-4.26,7.04-10.01,7.49-16.4h-4.61Z"/></g><g><path class="b" d="M211.43,372.01h0l-1.34,11.71v.02l-1.34,11.7,5.99,7.54,5.99-7.54-1.2-10.5h0l-.96-8.36-.52-4.55h0l-.41-3.58c-.03-.29,.06-.55,.27-.74,.21-.2,.47-.28,.75-.24,5.52,.86,10.47,3.47,14.24,7.25,4.32,4.32,7.12,10.18,7.51,16.68h-4.61c-.38-5.23-2.66-9.94-6.15-13.43-1.85-1.85-4.04-3.36-6.48-4.43l2.56,22.35,.12,1.01-.64,.8-8.55,10.76-1.93,2.42-1.93-2.42-8.55-10.76-.62-.81,.1-1,2.56-22.41c-2.49,1.07-4.73,2.6-6.62,4.49-3.49,3.49-5.77,8.2-6.15,13.43h-4.61c.39-6.5,3.18-12.35,7.51-16.68,3.81-3.81,8.81-6.43,14.39-7.27,.28-.04,.55,.04,.75,.24,.21,.2,.3,.46,.27,.74l-.41,3.58Z"/><path class="b" d="M219.72,347.77c-1.29-1.29-3.08-2.09-5.05-2.09s-3.76,.8-5.05,2.09c-1.29,1.29-2.09,3.08-2.09,5.05s.8,3.76,2.09,5.05c1.29,1.29,3.08,2.09,5.05,2.09s3.76-.8,5.05-2.09c1.29-1.29,2.09-3.08,2.09-5.05s-.8-3.76-2.09-5.05m-5.05-7.02c3.33,0,6.35,1.35,8.54,3.54,2.18,2.18,3.54,5.2,3.54,8.54s-1.35,6.35-3.54,8.54c-2.18,2.18-5.2,3.54-8.54,3.54s-6.35-1.35-8.54-3.54c-2.19-2.18-3.54-5.2-3.54-8.54s1.35-6.35,3.54-8.54c2.18-2.18,5.2-3.54,8.54-3.54Z"/><path class="b" d="M235.78,394.78c-.44,5.12-2.7,9.72-6.13,13.15-3.83,3.83-9.13,6.21-14.98,6.21s-11.15-2.37-14.99-6.21c-3.43-3.43-5.69-8.03-6.13-13.15h-4.61c.39,5.52,2.51,10.56,5.83,14.57l-8.39,8.39c-1.01-.05-2.04,.29-2.81,1.06l-4.72,4.72c-1.44,1.44-1.44,3.79,0,5.23,1.44,1.44,3.79,1.44,5.23,0l4.72-4.72c.77-.77,1.12-1.8,1.06-2.81l8.39-8.39c4.46,3.68,10.18,5.89,16.41,5.89,7.12,0,13.57-2.89,18.24-7.55,4.26-4.26,7.04-10.01,7.49-16.4h-4.61Z"/></g><g><path class="b" d="M198.59,696.94h0l-1.34,11.71v.02l-1.34,11.7,5.99,7.54,5.99-7.54-1.2-10.5h0l-.96-8.36-.52-4.55h0l-.41-3.58c-.03-.29,.06-.55,.27-.74,.21-.2,.47-.28,.75-.24,5.52,.86,10.47,3.47,14.24,7.25,4.32,4.32,7.12,10.18,7.51,16.68h-4.61c-.38-5.23-2.66-9.94-6.15-13.43-1.85-1.85-4.04-3.36-6.48-4.43l2.56,22.35,.12,1.01-.64,.8-8.55,10.76-1.93,2.42-1.93-2.42-8.55-10.76-.62-.81,.1-1,2.56-22.41c-2.49,1.07-4.73,2.6-6.62,4.49-3.49,3.49-5.77,8.2-6.15,13.43h-4.61c.39-6.5,3.18-12.35,7.51-16.68,3.81-3.81,8.81-6.43,14.39-7.27,.28-.04,.55,.04,.75,.24,.21,.2,.3,.46,.27,.74l-.41,3.58Z"/><path class="b" d="M206.87,672.7c-1.29-1.29-3.08-2.09-5.05-2.09s-3.76,.8-5.05,2.09c-1.29,1.29-2.09,3.08-2.09,5.05s.8,3.76,2.09,5.05c1.29,1.29,3.08,2.09,5.05,2.09s3.76-.8,5.05-2.09c1.29-1.29,2.09-3.08,2.09-5.05s-.8-3.76-2.09-5.05m-5.05-7.02c3.33,0,6.35,1.35,8.54,3.54,2.18,2.18,3.54,5.2,3.54,8.54s-1.35,6.35-3.54,8.54c-2.18,2.18-5.2,3.54-8.54,3.54s-6.35-1.35-8.54-3.54c-2.19-2.18-3.54-5.2-3.54-8.54s1.35-6.35,3.54-8.54c2.18-2.18,5.2-3.54,8.54-3.54Z"/><path class="b" d="M222.94,719.72c-.44,5.12-2.7,9.72-6.13,13.15-3.83,3.83-9.13,6.21-14.98,6.21s-11.15-2.37-14.99-6.21c-3.43-3.43-5.69-8.03-6.13-13.15h-4.61c.39,5.52,2.51,10.56,5.83,14.57l-8.39,8.39c-1.01-.05-2.04,.29-2.81,1.06l-4.72,4.72c-1.44,1.44-1.44,3.79,0,5.23,1.44,1.44,3.79,1.44,5.23,0l4.72-4.72c.77-.77,1.12-1.8,1.06-2.81l8.39-8.39c4.46,3.68,10.18,5.89,16.41,5.89,7.12,0,13.57-2.89,18.24-7.55,4.26-4.26,7.04-10.01,7.49-16.4h-4.61Z"/></g><g><path class="b" d="M198.58,1026.49h0l-1.34,11.71v.02l-1.34,11.7,5.99,7.54,5.99-7.54-1.2-10.5h0l-.96-8.36-.52-4.55h0l-.41-3.58c-.03-.29,.06-.55,.27-.74,.21-.2,.47-.28,.75-.24,5.52,.86,10.47,3.47,14.24,7.25,4.32,4.32,7.12,10.18,7.51,16.68h-4.61c-.38-5.23-2.66-9.94-6.15-13.43-1.85-1.85-4.04-3.36-6.48-4.43l2.56,22.35,.12,1.01-.64,.8-8.55,10.76-1.93,2.42-1.93-2.42-8.55-10.76-.62-.81,.1-1,2.56-22.41c-2.49,1.07-4.73,2.6-6.62,4.49-3.49,3.49-5.77,8.2-6.15,13.43h-4.61c.39-6.5,3.18-12.35,7.51-16.68,3.81-3.81,8.81-6.43,14.39-7.27,.28-.04,.55,.04,.75,.24,.21,.2,.3,.46,.27,.74l-.41,3.58Z"/><path class="b" d="M206.87,1002.25c-1.29-1.29-3.08-2.09-5.05-2.09s-3.76,.8-5.05,2.09c-1.29,1.29-2.09,3.08-2.09,5.05s.8,3.76,2.09,5.05c1.29,1.29,3.08,2.09,5.05,2.09s3.76-.8,5.05-2.09c1.29-1.29,2.09-3.08,2.09-5.05s-.8-3.76-2.09-5.05m-5.05-7.02c3.33,0,6.35,1.35,8.54,3.54,2.18,2.18,3.54,5.2,3.54,8.54s-1.35,6.35-3.54,8.54c-2.18,2.18-5.2,3.54-8.54,3.54s-6.35-1.35-8.54-3.54c-2.19-2.18-3.54-5.2-3.54-8.54s1.35-6.35,3.54-8.54c2.18-2.18,5.2-3.54,8.54-3.54Z"/><path class="b" d="M222.93,1049.27c-.44,5.12-2.7,9.72-6.13,13.15-3.83,3.83-9.13,6.21-14.98,6.21s-11.15-2.37-14.99-6.21c-3.43-3.43-5.69-8.03-6.13-13.15h-4.61c.39,5.52,2.51,10.56,5.83,14.57l-8.39,8.39c-1.01-.05-2.04,.29-2.81,1.06l-4.72,4.72c-1.44,1.44-1.44,3.79,0,5.23,1.44,1.44,3.79,1.44,5.23,0l4.72-4.72c.77-.77,1.12-1.8,1.06-2.81l8.39-8.39c4.46,3.68,10.18,5.89,16.41,5.89,7.12,0,13.57-2.89,18.24-7.55,4.26-4.26,7.04-10.01,7.49-16.4h-4.61Z"/></g><g><path class="b" d="M331.06,881.99h0l-1.34,11.71v.02l-1.34,11.7,5.99,7.54,5.99-7.54-1.2-10.5h0l-.96-8.36-.52-4.55h0l-.41-3.58c-.03-.29,.06-.55,.27-.74,.21-.2,.47-.28,.75-.24,5.52,.86,10.47,3.47,14.24,7.25,4.32,4.32,7.12,10.18,7.51,16.68h-4.61c-.38-5.23-2.66-9.94-6.15-13.43-1.85-1.85-4.04-3.36-6.48-4.43l2.56,22.35,.12,1.01-.64,.8-8.55,10.76-1.93,2.42-1.93-2.42-8.55-10.76-.62-.81,.1-1,2.56-22.41c-2.49,1.07-4.73,2.6-6.62,4.49-3.49,3.49-5.77,8.2-6.15,13.43h-4.61c.39-6.5,3.18-12.35,7.51-16.68,3.81-3.81,8.81-6.43,14.39-7.27,.28-.04,.55,.04,.75,.24,.21,.2,.3,.46,.27,.74l-.41,3.58Z"/><path class="b" d="M339.35,857.76c-1.29-1.29-3.08-2.09-5.05-2.09s-3.76,.8-5.05,2.09c-1.29,1.29-2.09,3.08-2.09,5.05s.8,3.76,2.09,5.05c1.29,1.29,3.08,2.09,5.05,2.09s3.76-.8,5.05-2.09c1.29-1.29,2.09-3.08,2.09-5.05s-.8-3.76-2.09-5.05m-5.05-7.02c3.33,0,6.35,1.35,8.54,3.54,2.18,2.18,3.54,5.2,3.54,8.54s-1.35,6.35-3.54,8.54c-2.18,2.18-5.2,3.54-8.54,3.54s-6.35-1.35-8.54-3.54c-2.19-2.18-3.54-5.2-3.54-8.54s1.35-6.35,3.54-8.54c2.18-2.18,5.2-3.54,8.54-3.54Z"/><path class="b" d="M355.41,904.77c-.44,5.12-2.7,9.72-6.13,13.15-3.83,3.83-9.13,6.21-14.98,6.21s-11.15-2.37-14.99-6.21c-3.43-3.43-5.69-8.03-6.13-13.15h-4.61c.39,5.52,2.51,10.56,5.83,14.57l-8.39,8.39c-1.01-.05-2.04,.29-2.81,1.06l-4.72,4.72c-1.44,1.44-1.44,3.79,0,5.23,1.44,1.44,3.79,1.44,5.23,0l4.72-4.72c.77-.77,1.12-1.8,1.06-2.81l8.39-8.39c4.46,3.68,10.18,5.89,16.41,5.89,7.12,0,13.57-2.89,18.24-7.55,4.26-4.26,7.04-10.01,7.49-16.4h-4.61Z"/></g><g><path class="b" d="M644.76,881.99h0l-1.34,11.71v.02l-1.34,11.7,5.99,7.54,5.99-7.54-1.2-10.5h0l-.96-8.36-.52-4.55h0l-.41-3.58c-.03-.29,.06-.55,.27-.74,.21-.2,.47-.28,.75-.24,5.52,.86,10.47,3.47,14.24,7.25,4.32,4.32,7.12,10.18,7.51,16.68h-4.61c-.38-5.23-2.66-9.94-6.15-13.43-1.85-1.85-4.04-3.36-6.48-4.43l2.56,22.35,.12,1.01-.64,.8-8.55,10.76-1.93,2.42-1.93-2.42-8.55-10.76-.62-.81,.1-1,2.56-22.41c-2.49,1.07-4.73,2.6-6.62,4.49-3.49,3.49-5.77,8.2-6.15,13.43h-4.61c.39-6.5,3.18-12.35,7.51-16.68,3.81-3.81,8.81-6.43,14.39-7.27,.28-.04,.55,.04,.75,.24,.21,.2,.3,.46,.27,.74l-.41,3.58Z"/><path class="b" d="M653.05,857.76c-1.29-1.29-3.08-2.09-5.05-2.09s-3.76,.8-5.05,2.09c-1.29,1.29-2.09,3.08-2.09,5.05s.8,3.76,2.09,5.05c1.29,1.29,3.08,2.09,5.05,2.09s3.76-.8,5.05-2.09c1.29-1.29,2.09-3.08,2.09-5.05s-.8-3.76-2.09-5.05m-5.05-7.02c3.33,0,6.35,1.35,8.54,3.54,2.18,2.18,3.54,5.2,3.54,8.54s-1.35,6.35-3.54,8.54c-2.18,2.18-5.2,3.54-8.54,3.54s-6.35-1.35-8.54-3.54c-2.19-2.18-3.54-5.2-3.54-8.54s1.35-6.35,3.54-8.54c2.18-2.18,5.2-3.54,8.54-3.54Z"/><path class="b" d="M669.11,904.77c-.44,5.12-2.7,9.72-6.13,13.15-3.83,3.83-9.13,6.21-14.98,6.21s-11.15-2.37-14.99-6.21c-3.43-3.43-5.69-8.03-6.13-13.15h-4.61c.39,5.52,2.51,10.56,5.83,14.57l-8.39,8.39c-1.01-.05-2.04,.29-2.81,1.06l-4.72,4.72c-1.44,1.44-1.44,3.79,0,5.23,1.44,1.44,3.79,1.44,5.23,0l4.72-4.72c.77-.77,1.12-1.8,1.06-2.81l8.39-8.39c4.46,3.68,10.18,5.89,16.41,5.89,7.12,0,13.57-2.89,18.24-7.55,4.26-4.26,7.04-10.01,7.49-16.4h-4.61Z"/></g><g><path class="b" d="M786.13,725.11h0l-1.34,11.71v.02l-1.34,11.7,5.99,7.54,5.99-7.54-1.2-10.5h0l-.96-8.36-.52-4.55h0l-.41-3.58c-.03-.29,.06-.55,.27-.74,.21-.2,.47-.28,.75-.24,5.52,.86,10.47,3.47,14.24,7.25,4.32,4.32,7.12,10.18,7.51,16.68h-4.61c-.38-5.23-2.66-9.94-6.15-13.43-1.85-1.85-4.04-3.36-6.48-4.43l2.56,22.35,.12,1.01-.64,.8-8.55,10.76-1.93,2.42-1.93-2.42-8.55-10.76-.62-.81,.1-1,2.56-22.41c-2.49,1.07-4.73,2.6-6.62,4.49-3.49,3.49-5.77,8.2-6.15,13.43h-4.61c.39-6.5,3.18-12.35,7.51-16.68,3.81-3.81,8.81-6.43,14.39-7.27,.28-.04,.55,.04,.75,.24,.21,.2,.3,.46,.27,.74l-.41,3.58Z"/><path class="b" d="M794.41,700.87c-1.29-1.29-3.08-2.09-5.05-2.09s-3.76,.8-5.05,2.09c-1.29,1.29-2.09,3.08-2.09,5.05s.8,3.76,2.09,5.05c1.29,1.29,3.08,2.09,5.05,2.09s3.76-.8,5.05-2.09c1.29-1.29,2.09-3.08,2.09-5.05s-.8-3.76-2.09-5.05m-5.05-7.02c3.33,0,6.35,1.35,8.54,3.54,2.18,2.18,3.54,5.2,3.54,8.54s-1.35,6.35-3.54,8.54c-2.18,2.18-5.2,3.54-8.54,3.54s-6.35-1.35-8.54-3.54c-2.19-2.18-3.54-5.2-3.54-8.54s1.35-6.35,3.54-8.54c2.18-2.18,5.2-3.54,8.54-3.54Z"/><path class="b" d="M810.48,747.88c-.44,5.12-2.7,9.72-6.13,13.15-3.83,3.83-9.13,6.21-14.98,6.21s-11.15-2.37-14.99-6.21c-3.43-3.43-5.69-8.03-6.13-13.15h-4.61c.39,5.52,2.51,10.56,5.83,14.57l-8.39,8.39c-1.01-.05-2.04,.29-2.81,1.06l-4.72,4.72c-1.44,1.44-1.44,3.79,0,5.23,1.44,1.44,3.79,1.44,5.23,0l4.72-4.72c.77-.77,1.12-1.8,1.06-2.81l8.39-8.39c4.46,3.68,10.18,5.89,16.41,5.89,7.12,0,13.57-2.89,18.24-7.55,4.26-4.26,7.04-10.01,7.49-16.4h-4.61Z"/></g><g><path class="b" d="M952.94,538.96h0l-1.34,11.71v.02l-1.34,11.7,5.99,7.54,5.99-7.54-1.2-10.5h0l-.96-8.36-.52-4.55h0l-.41-3.58c-.03-.29,.06-.55,.27-.74,.21-.2,.47-.28,.75-.24,5.52,.86,10.47,3.47,14.24,7.25,4.32,4.32,7.12,10.18,7.51,16.68h-4.61c-.38-5.23-2.66-9.94-6.15-13.43-1.85-1.85-4.04-3.36-6.48-4.43l2.56,22.35,.12,1.01-.64,.8-8.55,10.76-1.93,2.42-1.93-2.42-8.55-10.76-.62-.81,.1-1,2.56-22.41c-2.49,1.07-4.73,2.6-6.62,4.49-3.49,3.49-5.77,8.2-6.15,13.43h-4.61c.39-6.5,3.18-12.35,7.51-16.68,3.81-3.81,8.81-6.43,14.39-7.27,.28-.04,.55,.04,.75,.24,.21,.2,.3,.46,.27,.74l-.41,3.58Z"/><path class="b" d="M961.23,514.72c-1.29-1.29-3.08-2.09-5.05-2.09s-3.76,.8-5.05,2.09c-1.29,1.29-2.09,3.08-2.09,5.05s.8,3.76,2.09,5.05c1.29,1.29,3.08,2.09,5.05,2.09s3.76-.8,5.05-2.09c1.29-1.29,2.09-3.08,2.09-5.05s-.8-3.76-2.09-5.05m-5.05-7.02c3.33,0,6.35,1.35,8.54,3.54,2.18,2.18,3.54,5.2,3.54,8.54s-1.35,6.35-3.54,8.54c-2.18,2.18-5.2,3.54-8.54,3.54s-6.35-1.35-8.54-3.54c-2.19-2.18-3.54-5.2-3.54-8.54s1.35-6.35,3.54-8.54c2.18-2.18,5.2-3.54,8.54-3.54Z"/><path class="b" d="M977.29,561.74c-.44,5.12-2.7,9.72-6.13,13.15-3.83,3.83-9.13,6.21-14.98,6.21s-11.15-2.37-14.99-6.21c-3.43-3.43-5.69-8.03-6.13-13.15h-4.61c.39,5.52,2.51,10.56,5.83,14.57l-8.39,8.39c-1.01-.05-2.04,.29-2.81,1.06l-4.72,4.72c-1.44,1.44-1.44,3.79,0,5.23,1.44,1.44,3.79,1.44,5.23,0l4.72-4.72c.77-.77,1.12-1.8,1.06-2.81l8.39-8.39c4.46,3.68,10.18,5.89,16.41,5.89,7.12,0,13.57-2.89,18.24-7.55,4.26-4.26,7.04-10.01,7.49-16.4h-4.61Z"/></g><g><path class="b" d="M958.52,885.86h0l-1.34,11.71v.02l-1.34,11.7,5.99,7.54,5.99-7.54-1.2-10.5h0l-.96-8.36-.52-4.55h0l-.41-3.58c-.03-.29,.06-.55,.27-.74,.21-.2,.47-.28,.75-.24,5.52,.86,10.47,3.47,14.24,7.25,4.32,4.32,7.12,10.18,7.51,16.68h-4.61c-.38-5.23-2.66-9.94-6.15-13.43-1.85-1.85-4.04-3.36-6.48-4.43l2.56,22.35,.12,1.01-.64,.8-8.55,10.76-1.93,2.42-1.93-2.42-8.55-10.76-.62-.81,.1-1,2.56-22.41c-2.49,1.07-4.73,2.6-6.62,4.49-3.49,3.49-5.77,8.2-6.15,13.43h-4.61c.39-6.5,3.18-12.35,7.51-16.68,3.81-3.81,8.81-6.43,14.39-7.27,.28-.04,.55,.04,.75,.24,.21,.2,.3,.46,.27,.74l-.41,3.58Z"/><path class="b" d="M966.8,861.62c-1.29-1.29-3.08-2.09-5.05-2.09s-3.76,.8-5.05,2.09c-1.29,1.29-2.09,3.08-2.09,5.05s.8,3.76,2.09,5.05c1.29,1.29,3.08,2.09,5.05,2.09s3.76-.8,5.05-2.09c1.29-1.29,2.09-3.08,2.09-5.05s-.8-3.76-2.09-5.05m-5.05-7.02c3.33,0,6.35,1.35,8.54,3.54,2.18,2.18,3.54,5.2,3.54,8.54s-1.35,6.35-3.54,8.54c-2.18,2.18-5.2,3.54-8.54,3.54s-6.35-1.35-8.54-3.54c-2.19-2.18-3.54-5.2-3.54-8.54s1.35-6.35,3.54-8.54c2.18-2.18,5.2-3.54,8.54-3.54Z"/><path class="b" d="M982.87,908.64c-.44,5.12-2.7,9.72-6.13,13.15-3.83,3.83-9.13,6.21-14.98,6.21s-11.15-2.37-14.99-6.21c-3.43-3.43-5.69-8.03-6.13-13.15h-4.61c.39,5.52,2.51,10.56,5.83,14.57l-8.39,8.39c-1.01-.05-2.04,.29-2.81,1.06l-4.72,4.72c-1.44,1.44-1.44,3.79,0,5.23,1.44,1.44,3.79,1.44,5.23,0l4.72-4.72c.77-.77,1.12-1.8,1.06-2.81l8.39-8.39c4.46,3.68,10.18,5.89,16.41,5.89,7.12,0,13.57-2.89,18.24-7.55,4.26-4.26,7.04-10.01,7.49-16.4h-4.61Z"/></g><g><path class="b" d="M829.28,1039.64h0l-1.34,11.71v.02l-1.34,11.7,5.99,7.54,5.99-7.54-1.2-10.5h0l-.96-8.36-.52-4.55h0l-.41-3.58c-.03-.29,.06-.55,.27-.74,.21-.2,.47-.28,.75-.24,5.52,.86,10.47,3.47,14.24,7.25,4.32,4.32,7.12,10.18,7.51,16.68h-4.61c-.38-5.23-2.66-9.94-6.15-13.43-1.85-1.85-4.04-3.36-6.48-4.43l2.56,22.35,.12,1.01-.64,.8-8.55,10.76-1.93,2.42-1.93-2.42-8.55-10.76-.62-.81,.1-1,2.56-22.41c-2.49,1.07-4.73,2.6-6.62,4.49-3.49,3.49-5.77,8.2-6.15,13.43h-4.61c.39-6.5,3.18-12.35,7.51-16.68,3.81-3.81,8.81-6.43,14.39-7.27,.28-.04,.55,.04,.75,.24,.21,.2,.3,.46,.27,.74l-.41,3.58Z"/><path class="b" d="M837.57,1015.4c-1.29-1.29-3.08-2.09-5.05-2.09s-3.76,.8-5.05,2.09c-1.29,1.29-2.09,3.08-2.09,5.05s.8,3.76,2.09,5.05c1.29,1.29,3.08,2.09,5.05,2.09s3.76-.8,5.05-2.09c1.29-1.29,2.09-3.08,2.09-5.05s-.8-3.76-2.09-5.05m-5.05-7.02c3.33,0,6.35,1.35,8.54,3.54,2.18,2.18,3.54,5.2,3.54,8.54s-1.35,6.35-3.54,8.54c-2.18,2.18-5.2,3.54-8.54,3.54s-6.35-1.35-8.54-3.54c-2.19-2.18-3.54-5.2-3.54-8.54s1.35-6.35,3.54-8.54c2.18-2.18,5.2-3.54,8.54-3.54Z"/><path class="b" d="M853.63,1062.42c-.44,5.12-2.7,9.72-6.13,13.15-3.83,3.83-9.13,6.21-14.98,6.21s-11.15-2.37-14.99-6.21c-3.43-3.43-5.69-8.03-6.13-13.15h-4.61c.39,5.52,2.51,10.56,5.83,14.57l-8.39,8.39c-1.01-.05-2.04,.29-2.81,1.06l-4.72,4.72c-1.44,1.44-1.44,3.79,0,5.23,1.44,1.44,3.79,1.44,5.23,0l4.72-4.72c.77-.77,1.12-1.8,1.06-2.81l8.39-8.39c4.46,3.68,10.18,5.89,16.41,5.89,7.12,0,13.57-2.89,18.24-7.55,4.26-4.26,7.04-10.01,7.49-16.4h-4.61Z"/></g><g><path class="b" d="M501.51,1043.5h0l-1.34,11.71v.02l-1.34,11.7,5.99,7.54,5.99-7.54-1.2-10.5h0l-.96-8.36-.52-4.55h0l-.41-3.58c-.03-.29,.06-.55,.27-.74,.21-.2,.47-.28,.75-.24,5.52,.86,10.47,3.47,14.24,7.25,4.32,4.32,7.12,10.18,7.51,16.68h-4.61c-.38-5.23-2.66-9.94-6.15-13.43-1.85-1.85-4.04-3.36-6.48-4.43l2.56,22.35,.12,1.01-.64,.8-8.55,10.76-1.93,2.42-1.93-2.42-8.55-10.76-.62-.81,.1-1,2.56-22.41c-2.49,1.07-4.73,2.6-6.62,4.49-3.49,3.49-5.77,8.2-6.15,13.43h-4.61c.39-6.5,3.18-12.35,7.51-16.68,3.81-3.81,8.81-6.43,14.39-7.27,.28-.04,.55,.04,.75,.24,.21,.2,.3,.46,.27,.74l-.41,3.58Z"/><path class="b" d="M509.8,1019.27c-1.29-1.29-3.08-2.09-5.05-2.09s-3.76,.8-5.05,2.09c-1.29,1.29-2.09,3.08-2.09,5.05s.8,3.76,2.09,5.05c1.29,1.29,3.08,2.09,5.05,2.09s3.76-.8,5.05-2.09c1.29-1.29,2.09-3.08,2.09-5.05s-.8-3.76-2.09-5.05m-5.05-7.02c3.33,0,6.35,1.35,8.54,3.54,2.18,2.18,3.54,5.2,3.54,8.54s-1.35,6.35-3.54,8.54c-2.18,2.18-5.2,3.54-8.54,3.54s-6.35-1.35-8.54-3.54c-2.19-2.18-3.54-5.2-3.54-8.54s1.35-6.35,3.54-8.54c2.18-2.18,5.2-3.54,8.54-3.54Z"/><path class="b" d="M525.86,1066.28c-.44,5.12-2.7,9.72-6.13,13.15-3.83,3.83-9.13,6.21-14.98,6.21s-11.15-2.37-14.99-6.21c-3.43-3.43-5.69-8.03-6.13-13.15h-4.61c.39,5.52,2.51,10.56,5.83,14.57l-8.39,8.39c-1.01-.05-2.04,.29-2.81,1.06l-4.72,4.72c-1.44,1.44-1.44,3.79,0,5.23,1.44,1.44,3.79,1.44,5.23,0l4.72-4.72c.77-.77,1.12-1.8,1.06-2.81l8.39-8.39c4.46,3.68,10.18,5.89,16.41,5.89,7.12,0,13.57-2.89,18.24-7.55,4.26-4.26,7.04-10.01,7.49-16.4h-4.61Z"/></g><g><path class="b" d="M1103.05,1065.23h0l-1.34,11.71v.02l-1.34,11.7,5.99,7.54,5.99-7.54-1.2-10.5h0l-.96-8.36-.52-4.55h0l-.41-3.58c-.03-.29,.06-.55,.27-.74,.21-.2,.47-.28,.75-.24,5.52,.86,10.47,3.47,14.24,7.25,4.32,4.32,7.12,10.18,7.51,16.68h-4.61c-.38-5.23-2.66-9.94-6.15-13.43-1.85-1.85-4.04-3.36-6.48-4.43l2.56,22.35,.12,1.01-.64,.8-8.55,10.76-1.93,2.42-1.93-2.42-8.55-10.76-.62-.81,.1-1,2.56-22.41c-2.49,1.07-4.73,2.6-6.62,4.49-3.49,3.49-5.77,8.2-6.15,13.43h-4.61c.39-6.5,3.18-12.35,7.51-16.68,3.81-3.81,8.81-6.43,14.39-7.27,.28-.04,.55,.04,.75,.24,.21,.2,.3,.46,.27,.74l-.41,3.58Z"/><path class="b" d="M1111.34,1040.99c-1.29-1.29-3.08-2.09-5.05-2.09s-3.76,.8-5.05,2.09c-1.29,1.29-2.09,3.08-2.09,5.05s.8,3.76,2.09,5.05c1.29,1.29,3.08,2.09,5.05,2.09s3.76-.8,5.05-2.09c1.29-1.29,2.09-3.08,2.09-5.05s-.8-3.76-2.09-5.05m-5.05-7.02c3.33,0,6.35,1.35,8.54,3.54,2.18,2.18,3.54,5.2,3.54,8.54s-1.35,6.35-3.54,8.54c-2.18,2.18-5.2,3.54-8.54,3.54s-6.35-1.35-8.54-3.54c-2.19-2.18-3.54-5.2-3.54-8.54s1.35-6.35,3.54-8.54c2.18-2.18,5.2-3.54,8.54-3.54Z"/><path class="b" d="M1127.4,1088.01c-.44,5.12-2.7,9.72-6.13,13.15-3.83,3.83-9.13,6.21-14.98,6.21s-11.15-2.37-14.99-6.21c-3.43-3.43-5.69-8.03-6.13-13.15h-4.61c.39,5.52,2.51,10.56,5.83,14.57l-8.39,8.39c-1.01-.05-2.04,.29-2.81,1.06l-4.72,4.72c-1.44,1.44-1.44,3.79,0,5.23,1.44,1.44,3.79,1.44,5.23,0l4.72-4.72c.77-.77,1.12-1.8,1.06-2.81l8.39-8.39c4.46,3.68,10.18,5.89,16.41,5.89,7.12,0,13.57-2.89,18.24-7.55,4.26-4.26,7.04-10.01,7.49-16.4h-4.61Z"/></g><g><path class="b" d="M1087,725.11h0l-1.34,11.71v.02l-1.34,11.7,5.99,7.54,5.99-7.54-1.2-10.5h0l-.96-8.36-.52-4.55h0l-.41-3.58c-.03-.29,.06-.55,.27-.74,.21-.2,.47-.28,.75-.24,5.52,.86,10.47,3.47,14.24,7.25,4.32,4.32,7.12,10.18,7.51,16.68h-4.61c-.38-5.23-2.66-9.94-6.15-13.43-1.85-1.85-4.04-3.36-6.48-4.43l2.56,22.35,.12,1.01-.64,.8-8.55,10.76-1.93,2.42-1.93-2.42-8.55-10.76-.62-.81,.1-1,2.56-22.41c-2.49,1.07-4.73,2.6-6.62,4.49-3.49,3.49-5.77,8.2-6.15,13.43h-4.61c.39-6.5,3.18-12.35,7.51-16.68,3.81-3.81,8.81-6.43,14.39-7.27,.28-.04,.55,.04,.75,.24,.21,.2,.3,.46,.27,.74l-.41,3.58Z"/><path class="b" d="M1095.29,700.87c-1.29-1.29-3.08-2.09-5.05-2.09s-3.76,.8-5.05,2.09c-1.29,1.29-2.09,3.08-2.09,5.05s.8,3.76,2.09,5.05c1.29,1.29,3.08,2.09,5.05,2.09s3.76-.8,5.05-2.09c1.29-1.29,2.09-3.08,2.09-5.05s-.8-3.76-2.09-5.05m-5.05-7.02c3.33,0,6.35,1.35,8.54,3.54,2.18,2.18,3.54,5.2,3.54,8.54s-1.35,6.35-3.54,8.54c-2.18,2.18-5.2,3.54-8.54,3.54s-6.35-1.35-8.54-3.54c-2.19-2.18-3.54-5.2-3.54-8.54s1.35-6.35,3.54-8.54c2.18-2.18,5.2-3.54,8.54-3.54Z"/><path class="b" d="M1111.35,747.88c-.44,5.12-2.7,9.72-6.13,13.15-3.83,3.83-9.13,6.21-14.98,6.21s-11.15-2.37-14.99-6.21c-3.43-3.43-5.69-8.03-6.13-13.15h-4.61c.39,5.52,2.51,10.56,5.83,14.57l-8.39,8.39c-1.01-.05-2.04,.29-2.81,1.06l-4.72,4.72c-1.44,1.44-1.44,3.79,0,5.23,1.44,1.44,3.79,1.44,5.23,0l4.72-4.72c.77-.77,1.12-1.8,1.06-2.81l8.39-8.39c4.46,3.68,10.18,5.89,16.41,5.89,7.12,0,13.57-2.89,18.24-7.55,4.26-4.26,7.04-10.01,7.49-16.4h-4.61Z"/></g><g><path class="b" d="M1071.73,395.08h0l-1.34,11.71v.02l-1.34,11.7,5.99,7.54,5.99-7.54-1.2-10.5h0l-.96-8.36-.52-4.55h0l-.41-3.58c-.03-.29,.06-.55,.27-.74,.21-.2,.47-.28,.75-.24,5.52,.86,10.47,3.47,14.24,7.25,4.32,4.32,7.12,10.18,7.51,16.68h-4.61c-.38-5.23-2.66-9.94-6.15-13.43-1.85-1.85-4.04-3.36-6.48-4.43l2.56,22.35,.12,1.01-.64,.8-8.55,10.76-1.93,2.42-1.93-2.42-8.55-10.76-.62-.81,.1-1,2.56-22.41c-2.49,1.07-4.73,2.6-6.62,4.49-3.49,3.49-5.77,8.2-6.15,13.43h-4.61c.39-6.5,3.18-12.35,7.51-16.68,3.81-3.81,8.81-6.43,14.39-7.27,.28-.04,.55,.04,.75,.24,.21,.2,.3,.46,.27,.74l-.41,3.58Z"/><path class="b" d="M1080.02,370.84c-1.29-1.29-3.08-2.09-5.05-2.09s-3.76,.8-5.05,2.09c-1.29,1.29-2.09,3.08-2.09,5.05s.8,3.76,2.09,5.05c1.29,1.29,3.08,2.09,5.05,2.09s3.76-.8,5.05-2.09c1.29-1.29,2.09-3.08,2.09-5.05s-.8-3.76-2.09-5.05m-5.05-7.02c3.33,0,6.35,1.35,8.54,3.54,2.18,2.18,3.54,5.2,3.54,8.54s-1.35,6.35-3.54,8.54c-2.18,2.18-5.2,3.54-8.54,3.54s-6.35-1.35-8.54-3.54c-2.19-2.18-3.54-5.2-3.54-8.54s1.35-6.35,3.54-8.54c2.18-2.18,5.2-3.54,8.54-3.54Z"/><path class="b" d="M1096.08,417.85c-.44,5.12-2.7,9.72-6.13,13.15-3.83,3.83-9.13,6.21-14.98,6.21s-11.15-2.37-14.99-6.21c-3.43-3.43-5.69-8.03-6.13-13.15h-4.61c.39,5.52,2.51,10.56,5.83,14.57l-8.39,8.39c-1.01-.05-2.04,.29-2.81,1.06l-4.72,4.72c-1.44,1.44-1.44,3.79,0,5.23,1.44,1.44,3.79,1.44,5.23,0l4.72-4.72c.77-.77,1.12-1.8,1.06-2.81l8.39-8.39c4.46,3.68,10.18,5.89,16.41,5.89,7.12,0,13.57-2.89,18.24-7.55,4.26-4.26,7.04-10.01,7.49-16.4h-4.61Z"/></g><g><path class="b" d="M938.35,222.67h0l-1.34,11.71v.02l-1.34,11.7,5.99,7.54,5.99-7.54-1.2-10.5h0l-.96-8.36-.52-4.55h0l-.41-3.58c-.03-.29,.06-.55,.27-.74,.21-.2,.47-.28,.75-.24,5.52,.86,10.47,3.47,14.24,7.25,4.32,4.32,7.12,10.18,7.51,16.68h-4.61c-.38-5.23-2.66-9.94-6.15-13.43-1.85-1.85-4.04-3.36-6.48-4.43l2.56,22.35,.12,1.01-.64,.8-8.55,10.76-1.93,2.42-1.93-2.42-8.55-10.76-.62-.81,.1-1,2.56-22.41c-2.49,1.07-4.73,2.6-6.62,4.49-3.49,3.49-5.77,8.2-6.15,13.43h-4.61c.39-6.5,3.18-12.35,7.51-16.68,3.81-3.81,8.81-6.43,14.39-7.27,.28-.04,.55,.04,.75,.24,.21,.2,.3,.46,.27,.74l-.41,3.58Z"/><path class="b" d="M946.64,198.43c-1.29-1.29-3.08-2.09-5.05-2.09s-3.76,.8-5.05,2.09c-1.29,1.29-2.09,3.08-2.09,5.05s.8,3.76,2.09,5.05c1.29,1.29,3.08,2.09,5.05,2.09s3.76-.8,5.05-2.09c1.29-1.29,2.09-3.08,2.09-5.05s-.8-3.76-2.09-5.05m-5.05-7.02c3.33,0,6.35,1.35,8.54,3.54,2.18,2.18,3.54,5.2,3.54,8.54s-1.35,6.35-3.54,8.54c-2.18,2.18-5.2,3.54-8.54,3.54s-6.35-1.35-8.54-3.54c-2.19-2.18-3.54-5.2-3.54-8.54s1.35-6.35,3.54-8.54c2.18-2.18,5.2-3.54,8.54-3.54Z"/><path class="b" d="M962.7,245.45c-.44,5.12-2.7,9.72-6.13,13.15-3.83,3.83-9.13,6.21-14.98,6.21s-11.15-2.37-14.99-6.21c-3.43-3.43-5.69-8.03-6.13-13.15h-4.61c.39,5.52,2.51,10.56,5.83,14.57l-8.39,8.39c-1.01-.05-2.04,.29-2.81,1.06l-4.72,4.72c-1.44,1.44-1.44,3.79,0,5.23,1.44,1.44,3.79,1.44,5.23,0l4.72-4.72c.77-.77,1.12-1.8,1.06-2.81l8.39-8.39c4.46,3.68,10.18,5.89,16.41,5.89,7.12,0,13.57-2.89,18.24-7.55,4.26-4.26,7.04-10.01,7.49-16.4h-4.61Z"/></g><g><path class="b" d="M792.9,54.75h0l-1.34,11.71v.02l-1.34,11.7,5.99,7.54,5.99-7.54-1.2-10.5h0l-.96-8.36-.52-4.55h0l-.41-3.58c-.03-.29,.06-.55,.27-.74,.21-.2,.47-.28,.75-.24,5.52,.86,10.47,3.47,14.24,7.25,4.32,4.32,7.12,10.18,7.51,16.68h-4.61c-.38-5.23-2.66-9.94-6.15-13.43-1.85-1.85-4.04-3.36-6.48-4.43l2.56,22.35,.12,1.01-.64,.8-8.55,10.76-1.93,2.42-1.93-2.42-8.55-10.76-.62-.81,.1-1,2.56-22.41c-2.49,1.07-4.73,2.6-6.62,4.49-3.49,3.49-5.77,8.2-6.15,13.43h-4.61c.39-6.5,3.18-12.35,7.51-16.68,3.81-3.81,8.81-6.43,14.39-7.27,.28-.04,.55,.04,.75,.24,.21,.2,.3,.46,.27,.74l-.41,3.58Z"/><path class="b" d="M801.19,30.51c-1.29-1.29-3.08-2.09-5.05-2.09s-3.76,.8-5.05,2.09c-1.29,1.29-2.09,3.08-2.09,5.05s.8,3.76,2.09,5.05c1.29,1.29,3.08,2.09,5.05,2.09s3.76-.8,5.05-2.09c1.29-1.29,2.09-3.08,2.09-5.05s-.8-3.76-2.09-5.05m-5.05-7.02c3.33,0,6.35,1.35,8.54,3.54,2.18,2.18,3.54,5.2,3.54,8.54s-1.35,6.35-3.54,8.54c-2.18,2.18-5.2,3.54-8.54,3.54s-6.35-1.35-8.54-3.54c-2.19-2.18-3.54-5.2-3.54-8.54s1.35-6.35,3.54-8.54c2.18-2.18,5.2-3.54,8.54-3.54Z"/><path class="b" d="M817.25,77.53c-.44,5.12-2.7,9.72-6.13,13.15-3.83,3.83-9.13,6.21-14.98,6.21s-11.15-2.37-14.99-6.21c-3.43-3.43-5.69-8.03-6.13-13.15h-4.61c.39,5.52,2.51,10.56,5.83,14.57l-8.39,8.39c-1.01-.05-2.04,.29-2.81,1.06l-4.72,4.72c-1.44,1.44-1.44,3.79,0,5.23,1.44,1.44,3.79,1.44,5.23,0l4.72-4.72c.77-.77,1.12-1.8,1.06-2.81l8.39-8.39c4.46,3.68,10.18,5.89,16.41,5.89,7.12,0,13.57-2.89,18.24-7.55,4.26-4.26,7.04-10.01,7.49-16.4h-4.61Z"/></g><g><path class="b" d="M505.16,68.83h0l-1.34,11.71v.02l-1.34,11.7,5.99,7.54,5.99-7.54-1.2-10.5h0l-.96-8.36-.52-4.55h0l-.41-3.58c-.03-.29,.06-.55,.27-.74,.21-.2,.47-.28,.75-.24,5.52,.86,10.47,3.47,14.24,7.25,4.32,4.32,7.12,10.18,7.51,16.68h-4.61c-.38-5.23-2.66-9.94-6.15-13.43-1.85-1.85-4.04-3.36-6.48-4.43l2.56,22.35,.12,1.01-.64,.8-8.55,10.76-1.93,2.42-1.93-2.42-8.55-10.76-.62-.81,.1-1,2.56-22.41c-2.49,1.07-4.73,2.6-6.62,4.49-3.49,3.49-5.77,8.2-6.15,13.43h-4.61c.39-6.5,3.18-12.35,7.51-16.68,3.81-3.81,8.81-6.43,14.39-7.27,.28-.04,.55,.04,.75,.24,.21,.2,.3,.46,.27,.74l-.41,3.58Z"/><path class="b" d="M513.44,44.6c-1.29-1.29-3.08-2.09-5.05-2.09s-3.76,.8-5.05,2.09c-1.29,1.29-2.09,3.08-2.09,5.05s.8,3.76,2.09,5.05c1.29,1.29,3.08,2.09,5.05,2.09s3.76-.8,5.05-2.09c1.29-1.29,2.09-3.08,2.09-5.05s-.8-3.76-2.09-5.05m-5.05-7.02c3.33,0,6.35,1.35,8.54,3.54,2.18,2.18,3.54,5.2,3.54,8.54s-1.35,6.35-3.54,8.54c-2.18,2.18-5.2,3.54-8.54,3.54s-6.35-1.35-8.54-3.54c-2.19-2.18-3.54-5.2-3.54-8.54s1.35-6.35,3.54-8.54c2.18-2.18,5.2-3.54,8.54-3.54Z"/><path class="b" d="M529.51,91.61c-.44,5.12-2.7,9.72-6.13,13.15-3.83,3.83-9.13,6.21-14.98,6.21s-11.15-2.37-14.99-6.21c-3.43-3.43-5.69-8.03-6.13-13.15h-4.61c.39,5.52,2.51,10.56,5.83,14.57l-8.39,8.39c-1.01-.05-2.04,.29-2.81,1.06l-4.72,4.72c-1.44,1.44-1.44,3.79,0,5.23,1.44,1.44,3.79,1.44,5.23,0l4.72-4.72c.77-.77,1.12-1.8,1.06-2.81l8.39-8.39c4.46,3.68,10.18,5.89,16.41,5.89,7.12,0,13.57-2.89,18.24-7.55,4.26-4.26,7.04-10.01,7.49-16.4h-4.61Z"/></g><g><path class="b" d="M216.23,76.69h0l-1.34,11.71v.02l-1.34,11.7,5.99,7.54,5.99-7.54-1.2-10.5h0l-.96-8.36-.52-4.55h0l-.41-3.58c-.03-.29,.06-.55,.27-.74,.21-.2,.47-.28,.75-.24,5.52,.86,10.47,3.47,14.24,7.25,4.32,4.32,7.12,10.18,7.51,16.68h-4.61c-.38-5.23-2.66-9.94-6.15-13.43-1.85-1.85-4.04-3.36-6.48-4.43l2.56,22.35,.12,1.01-.64,.8-8.55,10.76-1.93,2.42-1.93-2.42-8.55-10.76-.62-.81,.1-1,2.56-22.41c-2.49,1.07-4.73,2.6-6.62,4.49-3.49,3.49-5.77,8.2-6.15,13.43h-4.61c.39-6.5,3.18-12.35,7.51-16.68,3.81-3.81,8.81-6.43,14.39-7.27,.28-.04,.55,.04,.75,.24,.21,.2,.3,.46,.27,.74l-.41,3.58Z"/><path class="b" d="M224.52,52.45c-1.29-1.29-3.08-2.09-5.05-2.09s-3.76,.8-5.05,2.09c-1.29,1.29-2.09,3.08-2.09,5.05s.8,3.76,2.09,5.05c1.29,1.29,3.08,2.09,5.05,2.09s3.76-.8,5.05-2.09c1.29-1.29,2.09-3.08,2.09-5.05s-.8-3.76-2.09-5.05m-5.05-7.02c3.33,0,6.35,1.35,8.54,3.54,2.18,2.18,3.54,5.2,3.54,8.54s-1.35,6.35-3.54,8.54c-2.18,2.18-5.2,3.54-8.54,3.54s-6.35-1.35-8.54-3.54c-2.19-2.18-3.54-5.2-3.54-8.54s1.35-6.35,3.54-8.54c2.18-2.18,5.2-3.54,8.54-3.54Z"/><path class="b" d="M240.58,99.47c-.44,5.12-2.7,9.72-6.13,13.15-3.83,3.83-9.13,6.21-14.98,6.21s-11.15-2.37-14.99-6.21c-3.43-3.43-5.69-8.03-6.13-13.15h-4.61c.39,5.52,2.51,10.56,5.83,14.57l-8.39,8.39c-1.01-.05-2.04,.29-2.81,1.06l-4.72,4.72c-1.44,1.44-1.44,3.79,0,5.23,1.44,1.44,3.79,1.44,5.23,0l4.72-4.72c.77-.77,1.12-1.8,1.06-2.81l8.39-8.39c4.46,3.68,10.18,5.89,16.41,5.89,7.12,0,13.57-2.89,18.24-7.55,4.26-4.26,7.04-10.01,7.49-16.4h-4.61Z"/></g><g><path class="b" d="M72.07,223.14h0l-1.34,11.71v.02l-1.34,11.7,5.99,7.54,5.99-7.54-1.2-10.5h0l-.96-8.36-.52-4.55h0l-.41-3.58c-.03-.29,.06-.55,.27-.74,.21-.2,.47-.28,.75-.24,5.52,.86,10.47,3.47,14.24,7.25,4.32,4.32,7.12,10.18,7.51,16.68h-4.61c-.38-5.23-2.66-9.94-6.15-13.43-1.85-1.85-4.04-3.36-6.48-4.43l2.56,22.35,.12,1.01-.64,.8-8.55,10.76-1.93,2.42-1.93-2.42-8.55-10.76-.62-.81,.1-1,2.56-22.41c-2.49,1.07-4.73,2.6-6.62,4.49-3.49,3.49-5.77,8.2-6.15,13.43h-4.61c.39-6.5,3.18-12.35,7.51-16.68,3.81-3.81,8.81-6.43,14.39-7.27,.28-.04,.55,.04,.75,.24,.21,.2,.3,.46,.27,.74l-.41,3.58Z"/><path class="b" d="M80.35,198.9c-1.29-1.29-3.08-2.09-5.05-2.09s-3.76,.8-5.05,2.09c-1.29,1.29-2.09,3.08-2.09,5.05s.8,3.76,2.09,5.05c1.29,1.29,3.08,2.09,5.05,2.09s3.76-.8,5.05-2.09c1.29-1.29,2.09-3.08,2.09-5.05s-.8-3.76-2.09-5.05m-5.05-7.02c3.33,0,6.35,1.35,8.54,3.54,2.18,2.18,3.54,5.2,3.54,8.54s-1.35,6.35-3.54,8.54c-2.18,2.18-5.2,3.54-8.54,3.54s-6.35-1.35-8.54-3.54c-2.19-2.18-3.54-5.2-3.54-8.54s1.35-6.35,3.54-8.54c2.18-2.18,5.2-3.54,8.54-3.54Z"/><path class="b" d="M96.42,245.92c-.44,5.12-2.7,9.72-6.13,13.15-3.83,3.83-9.13,6.21-14.98,6.21s-11.15-2.37-14.99-6.21c-3.43-3.43-5.69-8.03-6.13-13.15h-4.61c.39,5.52,2.51,10.56,5.83,14.57l-8.39,8.39c-1.01-.05-2.04,.29-2.81,1.06l-4.72,4.72c-1.44,1.44-1.44,3.79,0,5.23,1.44,1.44,3.79,1.44,5.23,0l4.72-4.72c.77-.77,1.12-1.8,1.06-2.81l8.39-8.39c4.46,3.68,10.18,5.89,16.41,5.89,7.12,0,13.57-2.89,18.24-7.55,4.26-4.26,7.04-10.01,7.49-16.4h-4.61Z"/></g><g><path class="b" d="M56.56,549.55h0l-1.34,11.71v.02l-1.34,11.7,5.99,7.54,5.99-7.54-1.2-10.5h0l-.96-8.36-.52-4.55h0l-.41-3.58c-.03-.29,.06-.55,.27-.74,.21-.2,.47-.28,.75-.24,5.52,.86,10.47,3.47,14.24,7.25,4.32,4.32,7.12,10.18,7.51,16.68h-4.61c-.38-5.23-2.66-9.94-6.15-13.43-1.85-1.85-4.04-3.36-6.48-4.43l2.56,22.35,.12,1.01-.64,.8-8.55,10.76-1.93,2.42-1.93-2.42-8.55-10.76-.62-.81,.1-1,2.56-22.41c-2.49,1.07-4.73,2.6-6.62,4.49-3.49,3.49-5.77,8.2-6.15,13.43h-4.61c.39-6.5,3.18-12.35,7.51-16.68,3.81-3.81,8.81-6.43,14.39-7.27,.28-.04,.55,.04,.75,.24,.21,.2,.3,.46,.27,.74l-.41,3.58Z"/><path class="b" d="M64.85,525.31c-1.29-1.29-3.08-2.09-5.05-2.09s-3.76,.8-5.05,2.09c-1.29,1.29-2.09,3.08-2.09,5.05s.8,3.76,2.09,5.05c1.29,1.29,3.08,2.09,5.05,2.09s3.76-.8,5.05-2.09c1.29-1.29,2.09-3.08,2.09-5.05s-.8-3.76-2.09-5.05m-5.05-7.02c3.33,0,6.35,1.35,8.54,3.54,2.18,2.18,3.54,5.2,3.54,8.54s-1.35,6.35-3.54,8.54c-2.18,2.18-5.2,3.54-8.54,3.54s-6.35-1.35-8.54-3.54c-2.19-2.18-3.54-5.2-3.54-8.54s1.35-6.35,3.54-8.54c2.18-2.18,5.2-3.54,8.54-3.54Z"/><path class="b" d="M80.91,572.32c-.44,5.12-2.7,9.72-6.13,13.15-3.83,3.83-9.13,6.21-14.98,6.21s-11.15-2.37-14.99-6.21c-3.43-3.43-5.69-8.03-6.13-13.15h-4.61c.39,5.52,2.51,10.56,5.83,14.57l-8.39,8.39c-1.01-.05-2.04,.29-2.81,1.06l-4.72,4.72c-1.44,1.44-1.44,3.79,0,5.23,1.44,1.44,3.79,1.44,5.23,0l4.72-4.72c.77-.77,1.12-1.8,1.06-2.81l8.39-8.39c4.46,3.68,10.18,5.89,16.41,5.89,7.12,0,13.57-2.89,18.24-7.55,4.26-4.26,7.04-10.01,7.49-16.4h-4.61Z"/></g><g><path class="b" d="M81.28,875.95h0l-1.34,11.71v.02l-1.34,11.7,5.99,7.54,5.99-7.54-1.2-10.5h0l-.96-8.36-.52-4.55h0l-.41-3.58c-.03-.29,.06-.55,.27-.74,.21-.2,.47-.28,.75-.24,5.52,.86,10.47,3.47,14.24,7.25,4.32,4.32,7.12,10.18,7.51,16.68h-4.61c-.38-5.23-2.66-9.94-6.15-13.43-1.85-1.85-4.04-3.36-6.48-4.43l2.56,22.35,.12,1.01-.64,.8-8.55,10.76-1.93,2.42-1.93-2.42-8.55-10.76-.62-.81,.1-1,2.56-22.41c-2.49,1.07-4.73,2.6-6.62,4.49-3.49,3.49-5.77,8.2-6.15,13.43h-4.61c.39-6.5,3.18-12.35,7.51-16.68,3.81-3.81,8.81-6.43,14.39-7.27,.28-.04,.55,.04,.75,.24,.21,.2,.3,.46,.27,.74l-.41,3.58Z"/><path class="b" d="M89.57,851.71c-1.29-1.29-3.08-2.09-5.05-2.09s-3.76,.8-5.05,2.09c-1.29,1.29-2.09,3.08-2.09,5.05s.8,3.76,2.09,5.05c1.29,1.29,3.08,2.09,5.05,2.09s3.76-.8,5.05-2.09c1.29-1.29,2.09-3.08,2.09-5.05s-.8-3.76-2.09-5.05m-5.05-7.02c3.33,0,6.35,1.35,8.54,3.54,2.18,2.18,3.54,5.2,3.54,8.54s-1.35,6.35-3.54,8.54c-2.18,2.18-5.2,3.54-8.54,3.54s-6.35-1.35-8.54-3.54c-2.19-2.18-3.54-5.2-3.54-8.54s1.35-6.35,3.54-8.54c2.18-2.18,5.2-3.54,8.54-3.54Z"/><path class="b" d="M105.63,898.73c-.44,5.12-2.7,9.72-6.13,13.15-3.83,3.83-9.13,6.21-14.98,6.21s-11.15-2.37-14.99-6.21c-3.43-3.43-5.69-8.03-6.13-13.15h-4.61c.39,5.52,2.51,10.56,5.83,14.57l-8.39,8.39c-1.01-.05-2.04,.29-2.81,1.06l-4.72,4.72c-1.44,1.44-1.44,3.79,0,5.23,1.44,1.44,3.79,1.44,5.23,0l4.72-4.72c.77-.77,1.12-1.8,1.06-2.81l8.39-8.39c4.46,3.68,10.18,5.89,16.41,5.89,7.12,0,13.57-2.89,18.24-7.55,4.26-4.26,7.04-10.01,7.49-16.4h-4.61Z"/></g><g><path class="b" d="M1071.72,50.61h0l-1.34,11.71v.02l-1.34,11.7,5.99,7.54,5.99-7.54-1.2-10.5h0l-.96-8.36-.52-4.55h0l-.41-3.58c-.03-.29,.06-.55,.27-.74,.21-.2,.47-.28,.75-.24,5.52,.86,10.47,3.47,14.24,7.25,4.32,4.32,7.12,10.18,7.51,16.68h-4.61c-.38-5.23-2.66-9.94-6.15-13.43-1.85-1.85-4.04-3.36-6.48-4.43l2.56,22.35,.12,1.01-.64,.8-8.55,10.76-1.93,2.42-1.93-2.42-8.55-10.76-.62-.81,.1-1,2.56-22.41c-2.49,1.07-4.73,2.6-6.62,4.49-3.49,3.49-5.77,8.2-6.15,13.43h-4.61c.39-6.5,3.18-12.35,7.51-16.68,3.81-3.81,8.81-6.43,14.39-7.27,.28-.04,.55,.04,.75,.24,.21,.2,.3,.46,.27,.74l-.41,3.58Z"/><path class="b" d="M1080.01,26.38c-1.29-1.29-3.08-2.09-5.05-2.09s-3.76,.8-5.05,2.09c-1.29,1.29-2.09,3.08-2.09,5.05s.8,3.76,2.09,5.05c1.29,1.29,3.08,2.09,5.05,2.09s3.76-.8,5.05-2.09c1.29-1.29,2.09-3.08,2.09-5.05s-.8-3.76-2.09-5.05m-5.05-7.02c3.33,0,6.35,1.35,8.54,3.54,2.18,2.18,3.54,5.2,3.54,8.54s-1.35,6.35-3.54,8.54c-2.18,2.18-5.2,3.54-8.54,3.54s-6.35-1.35-8.54-3.54c-2.19-2.18-3.54-5.2-3.54-8.54s1.35-6.35,3.54-8.54c2.18-2.18,5.2-3.54,8.54-3.54Z"/><path class="b" d="M1096.07,73.39c-.44,5.12-2.7,9.72-6.13,13.15-3.83,3.83-9.13,6.21-14.98,6.21s-11.15-2.37-14.99-6.21c-3.43-3.43-5.69-8.03-6.13-13.15h-4.61c.39,5.52,2.51,10.56,5.83,14.57l-8.39,8.39c-1.01-.05-2.04,.29-2.81,1.06l-4.72,4.72c-1.44,1.44-1.44,3.79,0,5.23,1.44,1.44,3.79,1.44,5.23,0l4.72-4.72c.77-.77,1.12-1.8,1.06-2.81l8.39-8.39c4.46,3.68,10.18,5.89,16.41,5.89,7.12,0,13.57-2.89,18.24-7.55,4.26-4.26,7.04-10.01,7.49-16.4h-4.61Z"/></g><g><path class="b" d="M55.5,1035.87h0l-2.21,19.31v.04l-2.21,19.29,9.88,12.43,9.88-12.43-1.98-17.31h0l-1.58-13.78-.86-7.51h0l-.68-5.9c-.05-.47,.1-.9,.44-1.23,.34-.33,.78-.47,1.24-.39,9.11,1.41,17.26,5.72,23.49,11.95,7.13,7.13,11.74,16.78,12.38,27.5h-7.6c-.63-8.63-4.38-16.38-10.14-22.14-3.05-3.05-6.67-5.54-10.68-7.3l4.22,36.85,.19,1.67-1.05,1.32-14.1,17.74-3.18,4-3.18-4-14.1-17.74-1.03-1.34,.17-1.64,4.23-36.96c-4.1,1.76-7.8,4.29-10.92,7.41-5.76,5.76-9.51,13.51-10.14,22.14h-7.6c.64-10.72,5.25-20.37,12.38-27.5,6.28-6.28,14.53-10.61,23.73-11.99,.47-.07,.9,.07,1.24,.4,.34,.33,.49,.75,.44,1.22l-.68,5.9Z"/><path class="b" d="M69.17,995.9c-2.13-2.13-5.07-3.45-8.33-3.45s-6.2,1.32-8.33,3.45c-2.13,2.13-3.45,5.07-3.45,8.33s1.32,6.2,3.45,8.33c2.13,2.13,5.08,3.45,8.33,3.45s6.2-1.32,8.33-3.45c2.13-2.13,3.45-5.08,3.45-8.33s-1.32-6.2-3.45-8.33m-8.33-11.58c5.5,0,10.47,2.23,14.08,5.83,3.6,3.6,5.83,8.58,5.83,14.08s-2.23,10.47-5.83,14.08c-3.6,3.6-8.58,5.83-14.08,5.83s-10.47-2.23-14.08-5.83c-3.6-3.6-5.83-8.58-5.83-14.08s2.23-10.48,5.83-14.08c3.6-3.6,8.58-5.83,14.08-5.83Z"/><path class="b" d="M95.65,1073.43c-.72,8.44-4.45,16.03-10.1,21.69-6.32,6.32-15.06,10.23-24.71,10.23s-18.39-3.91-24.71-10.23c-5.66-5.66-9.38-13.24-10.1-21.69h-7.6c.64,9.1,4.15,17.4,9.62,24.03l-13.84,13.84c-1.67-.09-3.36,.48-4.63,1.76l-7.78,7.78c-2.38,2.38-2.38,6.24,0,8.62,2.38,2.38,6.24,2.38,8.62,0l7.78-7.78c1.27-1.27,1.84-2.97,1.76-4.63l13.83-13.83c7.35,6.07,16.78,9.72,27.06,9.72,11.74,0,22.37-4.76,30.07-12.46,7.03-7.03,11.61-16.51,12.35-27.05h-7.6Z"/></g></svg>